<!-- Generated by IcoMoon.io -->
<svg version="1.1" xmlns="http://www.w3.org/2000/svg" width="32" height="32" viewBox="0 0 32 32">
<path d="M15.573 5.791c-0.2 0.087-9.435 9.271-9.689 9.637-0.107 0.171-0.171 0.378-0.171 0.601 0 0.116 0.017 0.228 0.049 0.333l-0.002-0.008c0.053 0.168 0.949 1.092 4.767 4.915 2.585 2.589 4.788 4.769 4.896 4.845 0.158 0.112 0.356 0.179 0.568 0.179 0.241 0 0.461-0.086 0.633-0.228l-0.002 0.001c0.209-0.181 0.341-0.447 0.341-0.744 0-0.146-0.032-0.284-0.089-0.409l0.003 0.006c-0.057-0.139-1.257-1.375-3.959-4.079l-3.877-3.88h8.255c8.983 0 8.443 0.019 8.74-0.3 0.159-0.162 0.258-0.385 0.258-0.63 0-0.011-0-0.021-0.001-0.031l0 0.002c0-0.267-0.079-0.469-0.257-0.66-0.297-0.319 0.243-0.3-8.74-0.3h-8.255l3.877-3.88c2.701-2.704 3.901-3.94 3.959-4.079 0.283-0.677-0.172-1.379-0.889-1.372-0.15 0.004-0.292 0.033-0.423 0.084l0.009-0.003z"></path>
</svg>
