<!-- Generated by IcoMoon.io -->
<svg version="1.1" xmlns="http://www.w3.org/2000/svg" width="32" height="32" viewBox="0 0 32 32">
<path d="M14.507 1.764c-3.731 0.419-6.981 2.203-9.291 4.832l-0.014 0.016c-1.73 1.997-2.931 4.497-3.356 7.253l-0.010 0.081c-0.079 0.507-0.099 0.939-0.097 2.080 0.001 1.315 0.013 1.512 0.144 2.267 0.077 0.455 0.225 1.131 0.327 1.501 1.505 5.471 6.052 9.496 11.712 10.369 0.868 0.133 2.8 0.163 3.653 0.055 2.451-0.311 4.464-1.047 6.4-2.341 0.981-0.656 1.121-0.835 1.083-1.375-0.036-0.496-0.343-0.812-0.856-0.883-0.295-0.040-0.485 0.040-1.056 0.445-1.699 1.208-3.605 1.937-5.757 2.205-0.741 0.092-2.256 0.079-2.987-0.027-2.776-0.4-5.155-1.565-7.064-3.465-0.626-0.602-1.177-1.273-1.644-2.004l-0.026-0.044c-0.941-1.439-1.511-2.896-1.86-4.757-0.137-0.732-0.139-3.213 0-3.947 0.52-2.779 1.635-4.923 3.539-6.812 1.593-1.579 3.617-2.724 5.88-3.244l0.083-0.016c0.808-0.188 1.737-0.296 2.69-0.296 1.071 0 2.111 0.136 3.102 0.392l-0.086-0.019c4.206 1.080 7.492 4.22 8.759 8.254l0.024 0.087c0.407 1.323 0.541 2.34 0.547 4.133 0.004 1.235-0.005 1.361-0.115 1.709-0.285 0.908-1.089 1.72-1.984 2.003-0.263 0.084-0.492 0.112-0.911 0.112s-0.648-0.028-0.911-0.112c-0.88-0.277-1.681-1.077-1.981-1.975-0.115-0.344-0.117-0.417-0.147-4.137-0.020-2.737-0.045-3.816-0.091-3.893-0.324-0.557-1.075-0.68-1.528-0.249-0.24 0.227-0.272 0.323-0.301 0.903l-0.028 0.548-0.293-0.243c-1.076-0.911-2.481-1.465-4.014-1.465-0.014 0-0.027 0-0.041 0h0.002c-2.744 0-5.116 1.716-5.992 4.335-0.192 0.595-0.302 1.28-0.302 1.991 0 0.369 0.030 0.732 0.087 1.085l-0.005-0.039c0.534 2.985 3.11 5.222 6.209 5.222 1.016 0 1.976-0.24 2.826-0.667l-0.036 0.017c0.755-0.372 1.571-1.001 1.987-1.532 0.117-0.151 0.225-0.273 0.24-0.273s0.129 0.151 0.253 0.336c0.46 0.681 1.323 1.393 2.067 1.703 0.805 0.336 1.057 0.384 2 0.383 0.771 0 0.929-0.016 1.28-0.125 1.277-0.397 2.187-1.055 2.853-2.060 0.303-0.457 0.475-0.829 0.675-1.467 0.121-0.387 0.125-0.457 0.125-2.213 0-2.053-0.045-2.493-0.4-3.893-0.546-2.144-1.513-4.012-2.814-5.595l0.020 0.025c-0.887-1.081-1.908-2.008-3.048-2.77l-0.050-0.032c-1.828-1.228-3.632-1.927-5.929-2.297-0.627-0.101-2.861-0.148-3.537-0.073zM17.12 11.793c1.452 0.361 2.712 1.628 3.097 3.113 0.083 0.321 0.111 0.592 0.111 1.093s-0.028 0.772-0.111 1.093c-0.425 1.524-1.6 2.699-3.093 3.117l-0.031 0.007c-0.596 0.155-1.591 0.155-2.187 0-1.524-0.425-2.699-1.6-3.117-3.093l-0.007-0.031c-0.155-0.596-0.155-1.591 0-2.187 0.368-1.421 1.544-2.653 2.925-3.068 0.387-0.114 0.832-0.18 1.292-0.18 0.398 0 0.784 0.049 1.153 0.141l-0.033-0.007z"></path>
</svg>
