<!-- Generated by IcoMoon.io -->
<svg version="1.1" xmlns="http://www.w3.org/2000/svg" width="32" height="32" viewBox="0 0 32 32">
<path d="M2.267 3.116c-0.223 0.115-0.398 0.298-0.5 0.521l-0.003 0.007c-0.080 0.211-0.080 20.501 0 20.712 0.103 0.213 0.256 0.387 0.445 0.512l0.005 0.003c0.079 0.047 1.473 0.071 5.227 0.091 5.108 0.028 5.121 0.028 5.471 0.145 0.653 0.221 1.259 0.7 1.659 1.316 0.251 0.385 0.391 0.827 0.443 1.388 0.047 0.504 0.093 0.645 0.285 0.849 0.177 0.186 0.426 0.302 0.703 0.302s0.526-0.116 0.702-0.302l0-0c0.192-0.204 0.239-0.345 0.285-0.849 0.052-0.561 0.192-1.003 0.443-1.388 0.4-0.616 1.005-1.095 1.659-1.316 0.349-0.117 0.363-0.117 5.471-0.145 3.753-0.020 5.148-0.044 5.227-0.091 0.193-0.128 0.346-0.302 0.446-0.507l0.003-0.008c0.080-0.211 0.080-20.501 0-20.712-0.105-0.234-0.285-0.419-0.508-0.528l-0.006-0.003c-0.261-0.112-8.813-0.108-9.428 0.005-1.769 0.324-3.172 1.225-4.207 2.701l-0.087 0.124-0.087-0.124c-1.021-1.457-2.425-2.364-4.176-2.696-0.381-0.072-1.061-0.084-4.876-0.081-3.587 0.001-4.465 0.015-4.595 0.073zM11.707 5.108c0.911 0.251 1.775 0.796 2.321 1.467 0.333 0.409 0.707 1.152 0.865 1.719l0.119 0.427 0.016 7.64c0.008 4.203-0.001 7.64-0.020 7.64-0.020 0-0.185-0.095-0.368-0.209-0.36-0.228-0.751-0.403-1.333-0.597l-0.373-0.125-9.28-0.055-0.013-8.96c-0.008-4.928-0.003-8.992 0.012-9.029 0.023-0.057 0.729-0.067 3.828-0.052 3.716 0.019 3.809 0.023 4.227 0.136zM28.347 14v9.013l-4.64 0.029c-3.997 0.025-4.677 0.040-4.907 0.112-0.508 0.159-1.088 0.413-1.429 0.629-0.108 0.075-0.232 0.146-0.362 0.209l-0.017 0.007c-0.019 0-0.028-3.439-0.020-7.64l0.016-7.64 0.119-0.427c0.159-0.567 0.532-1.309 0.865-1.719 0.709-0.836 1.709-1.407 2.841-1.556l0.023-0.002c0.2-0.023 1.972-0.040 3.937-0.036l3.573 0.007v9.013z"></path>
</svg>
