<!-- Generated by IcoMoon.io -->
<svg version="1.1" xmlns="http://www.w3.org/2000/svg" width="32" height="32" viewBox="0 0 32 32">
<path d="M8.385 3.148c-0.632 0.165-1.099 0.443-1.613 0.957-0.523 0.521-0.795 0.985-0.96 1.633-0.103 0.403-0.105 0.639-0.105 11.485v11.075l0.147 0.225c0.092 0.139 0.214 0.25 0.357 0.328l0.005 0.003c0.243 0.117 0.66 0.139 0.841 0.044 0.064-0.035 2.084-1.467 4.489-3.185 2.405-1.717 4.409-3.123 4.453-3.121s1.988 1.365 4.32 3.033c-0.215-0.098 1.244 0.949 2.707 1.989l1.771 1.195c0.512 0.327 1.231 0.101 1.439-0.453 0.040-0.104 0.057-3.516 0.057-11.177 0-10.801-0.003-11.037-0.105-11.44-0.165-0.648-0.437-1.112-0.96-1.633-0.521-0.523-0.985-0.795-1.633-0.96-0.4-0.103-0.615-0.105-7.616-0.103-6.913 0.003-7.221 0.007-7.593 0.105zM22.927 5.016c0.401 0.065 0.577 0.148 0.867 0.409 0.303 0.275 0.46 0.573 0.525 1.001 0.039 0.257 0.052 3.384 0.043 10.017l-0.015 9.644-3.787-2.707c0.094 0.020-1.216-0.919-2.531-1.852l-1.493-1.005c-0.151-0.1-0.337-0.159-0.536-0.159s-0.385 0.059-0.54 0.161l0.004-0.002c-0.131 0.084-1.941 1.369-4.024 2.857l-3.787 2.707-0.015-9.671c-0.011-6.82 0.001-9.773 0.043-10.017 0.069-0.408 0.231-0.708 0.525-0.975 0.28-0.252 0.473-0.348 0.817-0.405 0.415-0.069 13.48-0.072 13.903-0.004z"></path>
</svg>
