<!-- Generated by IcoMoon.io -->
<svg version="1.1" xmlns="http://www.w3.org/2000/svg" width="32" height="32" viewBox="0 0 32 32">
<path d="M26.24 7.124c-0.121 0.052-2.627 2.52-7.213 7.104l-7.027 7.024-3.027-3.024c-2.087-2.084-3.088-3.048-3.225-3.105-0.118-0.054-0.257-0.086-0.403-0.086-0.297 0-0.563 0.132-0.743 0.34l-0.001 0.001c-0.141 0.17-0.227 0.391-0.227 0.632 0 0.213 0.067 0.41 0.181 0.572l-0.002-0.003c0.076 0.108 1.644 1.701 3.485 3.54 2.319 2.316 3.409 3.369 3.547 3.427 0.123 0.050 0.265 0.079 0.415 0.079s0.292-0.029 0.422-0.082l-0.008 0.003c0.141-0.057 2.335-2.217 7.547-7.427 4.041-4.039 7.409-7.432 7.484-7.54 0.113-0.159 0.18-0.356 0.18-0.569 0-0.24-0.086-0.461-0.228-0.632l0.001 0.002c-0.184-0.209-0.452-0.34-0.751-0.34-0.148 0-0.288 0.032-0.414 0.089l0.006-0.003z"></path>
</svg>
