<!-- Generated by IcoMoon.io -->
<svg version="1.1" xmlns="http://www.w3.org/2000/svg" width="32" height="32" viewBox="0 0 32 32">
<path d="M19.573 7.124c-0.2 0.087-8.103 7.939-8.356 8.304-0.107 0.171-0.171 0.378-0.171 0.601 0 0.116 0.017 0.228 0.049 0.333l-0.002-0.008c0.053 0.167 0.837 0.979 4.1 4.248 2.219 2.223 4.121 4.103 4.229 4.179 0.158 0.112 0.356 0.179 0.568 0.179 0.241 0 0.461-0.086 0.633-0.228l-0.002 0.001c0.209-0.181 0.341-0.447 0.341-0.744 0-0.146-0.032-0.284-0.089-0.409l0.003 0.006c-0.057-0.139-1.205-1.323-3.772-3.892l-3.691-3.693 3.691-3.693c2.567-2.569 3.715-3.753 3.772-3.892 0.283-0.677-0.172-1.379-0.889-1.372-0.15 0.004-0.292 0.033-0.423 0.084l0.009-0.003z"></path>
</svg>
