<!-- Generated by IcoMoon.io -->
<svg version="1.1" xmlns="http://www.w3.org/2000/svg" width="32" height="32" viewBox="0 0 32 32">
<path d="M11.6 7.116c-0.476 0.212-0.688 0.791-0.477 1.299 0.057 0.139 1.205 1.323 3.772 3.892l3.691 3.693-3.691 3.693c-2.567 2.569-3.715 3.753-3.772 3.892-0.054 0.118-0.086 0.257-0.086 0.403 0 0.297 0.132 0.563 0.34 0.743l0.001 0.001c0.17 0.141 0.391 0.227 0.632 0.227 0.213 0 0.41-0.067 0.572-0.181l-0.003 0.002c0.108-0.076 2.011-1.956 4.229-4.179 3.263-3.269 4.047-4.081 4.1-4.248 0.030-0.097 0.047-0.209 0.047-0.325 0-0.222-0.064-0.43-0.174-0.605l0.003 0.005c-0.077-0.111-1.947-2.007-4.155-4.212-2.801-2.799-4.075-4.036-4.213-4.093-0.123-0.049-0.267-0.077-0.416-0.077-0.143 0-0.28 0.026-0.406 0.073l0.008-0.003z"></path>
</svg>
