<!-- Generated by IcoMoon.io -->
<svg version="1.1" xmlns="http://www.w3.org/2000/svg" width="32" height="32" viewBox="0 0 32 32">
<path d="M23.099 2.963c-0.541 0.117-1.148 0.451-1.688 0.925-0.263 0.232-4.167 4.113-8.675 8.627-5.727 5.732-8.223 8.264-8.279 8.4-0.044 0.107-0.384 1.403-0.753 2.88-0.737 2.94-0.753 3.055-0.5 3.429 0.184 0.244 0.474 0.401 0.8 0.401h0c0.129 0 1.468-0.311 2.973-0.689 2.115-0.531 2.781-0.719 2.933-0.824 0.108-0.075 3.98-3.923 8.604-8.551 8.768-8.775 8.677-8.68 8.996-9.437 0.185-0.443 0.275-0.915 0.275-1.463 0-0.005 0-0.011 0-0.016 0-1.79-1.245-3.289-2.916-3.679l-0.026-0.005c-0.417-0.099-1.288-0.099-1.745 0.001zM24.295 4.859c1.247 0.229 1.905 1.545 1.331 2.659-0.089 0.173-2.513 2.628-8.488 8.596l-8.364 8.353-1.668 0.413c-0.919 0.228-1.684 0.4-1.701 0.383s0.155-0.783 0.383-1.701l0.413-1.668 8.353-8.364c6.377-6.384 8.416-8.395 8.616-8.499 0.146-0.075 0.315-0.136 0.493-0.175l0.014-0.003 0.275-0.047c0.016-0.004 0.171 0.020 0.344 0.052zM15.6 25.783c-0.333 0.157-0.56 0.491-0.56 0.877 0 0.002 0 0.005 0 0.007v-0c0 0.267 0.079 0.469 0.257 0.66 0.295 0.316-0.060 0.3 6.703 0.3s6.408 0.016 6.703-0.3c0.46-0.491 0.273-1.329-0.347-1.563-0.103-0.040-2.1-0.057-6.373-0.055-5.080 0.001-6.252 0.015-6.383 0.073z"></path>
</svg>
