<svg version="1.1" xmlns="http://www.w3.org/2000/svg" width="32" height="32" viewBox="0 0 32 32"><path d="M20.747 1.685c-1.917.154-3.5.763-5.012 1.928-.268.207-2.385 2.278-5.16 5.049-3.661 3.656-4.728 4.751-4.812 4.938-.105.236-.107.343-.108 5.787l-.002 5.547-1.898 1.893c-1.247 1.243-1.934 1.966-1.999 2.106-.24.512.004 1.103.55 1.331.233.097.365.102.654.024.18-.048.518-.361 2.161-1.999l1.948-1.942 5.545-.002c5.298-.001 5.556-.005 5.759-.1.148-.069 1.653-1.543 4.861-4.759 2.556-2.563 4.781-4.81 4.943-4.995.812-.924 1.561-2.373 1.879-3.636.25-.995.332-2.502.188-3.442-.552-3.598-3.015-6.406-6.504-7.417-.781-.227-2.206-.375-2.993-.311m2.026 2.127c1.788.4 3.373 1.468 4.344 2.928 1.68 2.526 1.59 5.738-.23 8.167-.131.176-1.08 1.166-2.107 2.2l-1.869 1.88h-8.483l3.902-3.907c4.036-4.041 4.016-4.02 4.016-4.413 0-.327-.251-.735-.547-.888-.179-.093-.566-.119-.812-.055-.116.031-1.978 1.859-6.734 6.612l-6.573 6.57v-8.48l4.627-4.618c2.544-2.54 4.746-4.702 4.893-4.805.916-.643 1.829-1.024 2.987-1.247.509-.098 2.045-.065 2.586.056m-3.546 18.855-1.653 1.653h-8.48l1.653-1.653 1.652-1.654h8.48l-1.652 1.654" fill-rule="evenodd"/></svg>