<svg version="1.1" xmlns="http://www.w3.org/2000/svg" width="32" height="32" viewBox="0 0 32 32">
<path d="M13.512 2.708c-1.067 0.795-8.178 6.44-8.178 15.623 0 1.445 0.276 2.876 0.812 4.211s1.322 2.548 2.312 3.57 2.166 1.832 3.46 2.385c1.257 0.537 2.601 0.821 3.961 0.837-3.31-0.067-5.974-2.856-5.974-6.287 0-0.31 0.022-0.616 0.064-0.914 0.002-0.018 0.004-0.036 0.007-0.053 0.511-3.543 3.671-6.551 5.199-7.819 0.488-0.405 1.164-0.405 1.652 0 1.528 1.269 4.688 4.276 5.199 7.819 0.003 0.018 0.005 0.036 0.006 0.054 0.042 0.298 0.064 0.604 0.064 0.914 0 3.431-2.664 6.22-5.974 6.287 1.36-0.016 2.704-0.3 3.961-0.837 1.294-0.553 2.47-1.363 3.461-2.385s1.776-2.235 2.312-3.57c0.518-1.29 0.793-2.669 0.811-4.064 0.001-0.018 0.001-0.036 0.001-0.054l-0-0.050 0-0.043c-0.040-6.666-4.412-10.304-5.21-10.912-0.075-0.057-0.174-0.056-0.249 0.001-0.32 0.244-1.21 0.972-2.166 2.184-0.109 0.138-0.323 0.112-0.397-0.049-1.796-3.921-4.285-6.301-4.872-6.83-0.076-0.068-0.18-0.076-0.261-0.015z"></path>
</svg>
