<!-- Generated by IcoMoon.io -->
<svg version="1.1" xmlns="http://www.w3.org/2000/svg" width="32" height="32" viewBox="0 0 32 32">
<path d="M14.308 1.791c-5.207 0.643-9.502 3.998-11.47 8.587l-0.036 0.093c-0.697 1.634-1.102 3.534-1.102 5.529s0.405 3.896 1.138 5.624l-0.036-0.095c1.486 3.472 4.196 6.182 7.575 7.632l0.093 0.036c3.481 1.459 7.532 1.468 10.997 0.027 3.524-1.485 6.271-4.232 7.721-7.662l0.035-0.094c1.441-3.465 1.432-7.516-0.027-10.997-1.805-4.309-5.7-7.535-10.223-8.467-1.432-0.295-3.291-0.38-4.667-0.213zM17.813 3.791c2.211 0.332 4.173 1.208 5.804 2.487l-0.027-0.020 0.417 0.321-4.311 4.309-0.244-0.164c-0.956-0.645-2.217-1.017-3.453-1.017s-2.497 0.372-3.453 1.017l-0.244 0.164-4.311-4.309 0.417-0.321c0.619-0.485 1.316-0.927 2.055-1.297l0.071-0.032c2.304-1.127 4.704-1.501 7.277-1.137zM10.724 12.547c-0.645 0.956-1.017 2.217-1.017 3.453s0.372 2.497 1.017 3.453l0.164 0.244-4.309 4.311-0.321-0.417c-0.984-1.263-1.743-2.756-2.187-4.378l-0.021-0.089c-0.492-1.863-0.516-4.067-0.067-5.977 0.449-1.815 1.235-3.402 2.296-4.766l-0.021 0.028 0.321-0.417 4.309 4.311-0.164 0.244zM25.827 8.523c1.677 2.227 2.504 4.693 2.504 7.477 0 2.787-0.827 5.251-2.508 7.484l-0.399 0.527-4.312-4.313 0.164-0.244c0.645-0.956 1.017-2.217 1.017-3.453s-0.372-2.497-1.017-3.453l-0.164-0.244 2.151-2.152c1.183-1.183 2.155-2.151 2.16-2.151s0.188 0.235 0.404 0.523zM17.12 11.793c1.452 0.361 2.712 1.628 3.097 3.113 0.083 0.321 0.111 0.592 0.111 1.093s-0.028 0.772-0.111 1.093c-0.425 1.524-1.6 2.699-3.093 3.117l-0.031 0.007c-0.596 0.155-1.591 0.155-2.187 0-1.524-0.425-2.699-1.6-3.117-3.093l-0.007-0.031c-0.155-0.596-0.155-1.591 0-2.187 0.368-1.421 1.544-2.653 2.925-3.068 0.387-0.114 0.832-0.18 1.292-0.18 0.398 0 0.784 0.049 1.153 0.141l-0.033-0.007zM12.552 21.28c0.347 0.233 1.012 0.552 1.489 0.712 0.585 0.192 1.259 0.302 1.959 0.302s1.373-0.11 2.005-0.315l-0.046 0.013c0.48-0.161 1.144-0.479 1.495-0.716l0.244-0.164 4.313 4.312-0.527 0.399c-2.233 1.681-4.697 2.508-7.484 2.508s-5.251-0.827-7.484-2.508l-0.527-0.397 2.152-2.153c1.183-1.184 2.156-2.152 2.163-2.152 0.005 0 0.117 0.072 0.248 0.16z"></path>
</svg>
