<!-- Generated by IcoMoon.io -->
<svg version="1.1" xmlns="http://www.w3.org/2000/svg" width="32" height="32" viewBox="0 0 32 32">
<path d="M4.381 4.481c-0.624 0.164-1.092 0.443-1.608 0.959-0.523 0.523-0.796 0.988-0.961 1.629-0.103 0.405-0.105 0.609-0.105 8.931s0.003 8.525 0.105 8.931c0.165 0.641 0.439 1.107 0.961 1.629s0.988 0.796 1.629 0.961c0.407 0.104 0.616 0.105 11.597 0.105s11.191-0.001 11.597-0.105c0.641-0.165 1.107-0.439 1.629-0.961s0.796-0.988 0.961-1.629c0.103-0.405 0.105-0.609 0.105-8.931s-0.003-8.525-0.105-8.931c-0.165-0.641-0.439-1.107-0.961-1.629s-0.988-0.796-1.629-0.961c-0.407-0.104-0.611-0.105-11.619-0.103-10.877 0.003-11.217 0.007-11.597 0.105zM27.209 6.4c0.319 0.129 0.659 0.399 0.841 0.663 0.324 0.471 0.883 0.019-5.908 4.775-3.353 2.348-6.117 4.269-6.143 4.269-0.091 0-12.24-8.537-12.257-8.612-0.023-0.107 0.217-0.501 0.428-0.704 0.232-0.221 0.564-0.388 0.88-0.443 0.141-0.024 5.14-0.040 11.109-0.036 9.513 0.007 10.877 0.017 11.049 0.088zM9.493 13.975c-1.643-1.037 0.302 0.334 2.25 1.698l3.72 2.468c0.333 0.213 0.739 0.213 1.072 0 0.131-0.083 2.817-1.959 5.971-4.167-0.432 0.224 1.457-1.105 3.353-2.426l2.448-1.615c0.107-0.040 0.071 14.335-0.036 14.6-0.203 0.504-0.66 0.941-1.125 1.077-0.355 0.103-21.939 0.103-22.293 0-0.563-0.164-1.064-0.728-1.169-1.313-0.089-0.493-0.080-14.397 0.009-14.363 0.037 0.013 2.647 1.832 5.8 4.040z"></path>
</svg>
