<!-- Generated by IcoMoon.io -->
<svg version="1.1" xmlns="http://www.w3.org/2000/svg" width="32" height="32" viewBox="0 0 32 32">
<path d="M4.595 4.219c-0.246 0.051-0.461 0.116-0.666 0.198l0.026-0.009c-1.219 0.482-2.205 1.67-2.405 2.901-0.078 0.478-0.078 16.904 0 17.382 0.216 1.333 1.31 2.552 2.717 3.024 0.28 0.094 0.765 0.099 11.52 0.112 12.645 0.016 11.693 0.046 12.586-0.395 0.426-0.21 0.586-0.328 0.992-0.734s0.525-0.565 0.734-0.99c0.432-0.878 0.408-0.275 0.408-9.707s0.024-8.829-0.408-9.707c-0.211-0.427-0.326-0.582-0.734-0.989-0.441-0.457-0.989-0.808-1.604-1.011l-0.028-0.008c-0.28-0.094-0.755-0.099-11.573-0.106-6.44-0.005-11.402 0.013-11.565 0.040zM27.258 6.646c0.272 0.126 0.592 0.419 0.714 0.656l0.080 0.155-12.051 8.435-5.96-4.166c-5.627-3.828-7.59-5.22-9.548-6.617l3.521 2.387c-0.094-0.085 0.184-0.499 0.464-0.693 0.442-0.307-0.25-0.291 11.603-0.28l10.933 0.010 0.245 0.114zM9.61 14.301c3.149 2.205 5.819 4.053 5.938 4.106 0.272 0.125 0.634 0.125 0.906 0 0.118-0.053 2.789-1.901 5.938-4.106-1.101 0.675 0.771-0.644 2.647-1.955l3.1-2.053c0.013 0 0.018 3.163 0.010 7.027l-0.014 7.027-0.112 0.245c-0.167 0.332-0.43 0.596-0.754 0.757l-0.010 0.004-0.245 0.114h-22.026l-0.245-0.114c-0.322-0.163-0.581-0.413-0.751-0.719l-0.005-0.009-0.12-0.226-0.014-7.053c-0.008-3.88-0.003-7.054 0.010-7.054s2.6 1.805 5.747 4.008z"></path>
</svg>
