<!-- Generated by IcoMoon.io -->
<svg version="1.1" xmlns="http://www.w3.org/2000/svg" width="32" height="32" viewBox="0 0 32 32">
<path d="M19.748 4.375c-4.348 0.727-7.985 1.349-8.084 1.381-0.252 0.112-0.45 0.306-0.565 0.548l-0.003 0.007c-0.039 0.103-0.056 2.275-0.056 6.92 0 3.723-0.016 6.769-0.036 6.769s-0.183-0.095-0.36-0.211c-0.408-0.253-0.878-0.464-1.377-0.609l-0.040-0.010c-0.479-0.141-1.945-0.145-2.439-0.008-1.796 0.503-3.083 1.787-3.617 3.611-0.148 0.501-0.147 1.955 0 2.453 0.539 1.829 1.777 3.068 3.603 3.603 0.5 0.148 1.955 0.147 2.453 0 1.804-0.531 2.996-1.708 3.593-3.549 0.112-0.345 0.112-0.381 0.139-9.064l0.028-8.719 6.933-1.159c3.813-0.637 6.976-1.16 7.027-1.163 0.088-0.003 0.093 0.321 0.093 6.077 0 3.344-0.016 6.080-0.036 6.080s-0.183-0.095-0.36-0.211c-0.408-0.253-0.878-0.464-1.377-0.609l-0.041-0.010c-0.479-0.141-1.945-0.145-2.439-0.008-1.771 0.488-3.137 1.855-3.617 3.589l-0.009 0.036c-0.132 0.472-0.132 1.952 0 2.424 0.503 1.796 1.787 3.083 3.611 3.617 0.5 0.148 1.955 0.147 2.453 0 1.804-0.531 2.995-1.707 3.593-3.549 0.112-0.347 0.112-0.352 0.127-9.595 0.015-9.141 0.015-9.249-0.091-9.467-0.161-0.333-0.475-0.513-0.88-0.507-0.177 0.003-3.88 0.601-8.228 1.329zM24.909 18.455c0.864 0.252 1.695 1.080 1.976 1.968 0.155 0.489 0.155 1.332 0 1.821-0.279 0.884-1.091 1.696-1.975 1.975-0.489 0.155-1.332 0.155-1.821 0-0.884-0.279-1.696-1.091-1.975-1.975-0.155-0.489-0.155-1.332 0-1.821 0.201-0.639 0.687-1.255 1.303-1.655 0.704-0.457 1.604-0.571 2.492-0.313zM8.909 21.121c0.864 0.252 1.695 1.080 1.976 1.968 0.155 0.489 0.155 1.332 0 1.821-0.279 0.884-1.091 1.696-1.975 1.975-0.489 0.155-1.332 0.155-1.821 0-0.884-0.279-1.696-1.091-1.975-1.975-0.155-0.489-0.155-1.332 0-1.821 0.201-0.639 0.687-1.255 1.303-1.655 0.704-0.457 1.604-0.571 2.492-0.313z"></path>
</svg>
