<!-- Generated by IcoMoon.io -->
<svg version="1.1" xmlns="http://www.w3.org/2000/svg" width="88" height="32" viewBox="0 0 88 32">
<path d="M1.882 4.706c1.040 0 1.882 0.843 1.882 1.882v18.824c0 1.040-0.843 1.882-1.882 1.882s-1.882-0.843-1.882-1.882v-18.824c0-1.040 0.843-1.882 1.882-1.882z"></path>
<path d="M11.294 8.471c1.040 0 1.882 0.843 1.882 1.882v11.294c0 1.040-0.843 1.882-1.882 1.882s-1.882-0.843-1.882-1.882v-11.294c0-1.040 0.843-1.882 1.882-1.882z"></path>
<path d="M20.706 10.353c1.040 0 1.882 0.843 1.882 1.882v7.529c0 1.040-0.843 1.882-1.882 1.882s-1.882-0.843-1.882-1.882v-7.529c0-1.040 0.843-1.882 1.882-1.882z"></path>
<path d="M30.118 6.588c1.040 0 1.882 0.843 1.882 1.882v15.059c0 1.040-0.843 1.882-1.882 1.882s-1.882-0.843-1.882-1.882v-15.059c0-1.040 0.843-1.882 1.882-1.882z"></path>
<path d="M39.529 0.941c1.040 0 1.882 0.843 1.882 1.882v26.353c0 1.040-0.843 1.882-1.882 1.882s-1.882-0.843-1.882-1.882v-26.353c0-1.040 0.843-1.882 1.882-1.882z"></path>
<path d="M48.941 8.471c1.040 0 1.882 0.843 1.882 1.882v11.294c0 1.040-0.843 1.882-1.882 1.882s-1.882-0.843-1.882-1.882v-11.294c0-1.040 0.843-1.882 1.882-1.882z"></path>
<path d="M58.353 10.353c1.040 0 1.882 0.843 1.882 1.882v7.529c0 1.040-0.843 1.882-1.882 1.882s-1.882-0.843-1.882-1.882v-7.529c0-1.040 0.843-1.882 1.882-1.882z"></path>
<path d="M67.765 12.235c1.040 0 1.882 0.843 1.882 1.882v3.765c0 1.040-0.843 1.882-1.882 1.882s-1.882-0.843-1.882-1.882v-3.765c0-1.040 0.843-1.882 1.882-1.882z"></path>
<path d="M77.176 12.235c1.040 0 1.882 0.843 1.882 1.882v3.765c0 1.040-0.843 1.882-1.882 1.882s-1.882-0.843-1.882-1.882v-3.765c0-1.040 0.843-1.882 1.882-1.882z"></path>
<path d="M86.588 12.235c1.040 0 1.882 0.843 1.882 1.882v3.765c0 1.040-0.843 1.882-1.882 1.882s-1.882-0.843-1.882-1.882v-3.765c0-1.040 0.843-1.882 1.882-1.882z"></path>
</svg>
