<!-- Generated by IcoMoon.io -->
<svg version="1.1" xmlns="http://www.w3.org/2000/svg" width="32" height="32" viewBox="0 0 32 32">
<path d="M15.052 0.481c-0.632 0.165-1.099 0.443-1.613 0.957-0.724 0.724-0.987 1.324-1.063 2.429-0.025 0.353-0.080 0.728-0.124 0.832-0.245 0.587-1.121 0.912-1.721 0.64-0.221-0.128-0.411-0.268-0.585-0.426l0.003 0.002c-0.408-0.364-0.899-0.644-1.44-0.81l-0.028-0.007c-0.581-0.18-1.453-0.169-2.053 0.027-0.587 0.187-1.089 0.503-1.491 0.915l-0.001 0.001c-0.44 0.44-0.724 0.901-0.916 1.492-0.196 0.6-0.207 1.472-0.027 2.053 0.177 0.569 0.441 1.045 0.817 1.468 0.179 0.203 0.369 0.464 0.424 0.583 0.272 0.6-0.045 1.4-0.684 1.729-0.064 0.033-0.388 0.084-0.72 0.111-1.085 0.091-1.68 0.357-2.391 1.068-0.743 0.743-1.065 1.519-1.065 2.561s0.323 1.819 1.065 2.561c0.701 0.703 1.529 1.065 2.425 1.065 0.755 0 1.195 0.217 1.44 0.708 0.084 0.161 0.133 0.351 0.133 0.552 0 0.172-0.036 0.335-0.1 0.483l0.003-0.008c-0.128 0.221-0.268 0.411-0.426 0.585l0.002-0.003c-0.376 0.423-0.64 0.899-0.817 1.468-0.18 0.581-0.169 1.453 0.027 2.053 0.192 0.591 0.476 1.052 0.916 1.492 0.439 0.44 0.901 0.724 1.492 0.916 0.595 0.195 1.468 0.205 2.053 0.025 0.569-0.171 1.060-0.452 1.472-0.819l-0.004 0.003c0.203-0.179 0.464-0.369 0.583-0.424 0.6-0.272 1.4 0.045 1.729 0.684 0.033 0.064 0.084 0.388 0.111 0.72 0.091 1.085 0.357 1.68 1.068 2.391 0.743 0.743 1.519 1.065 2.561 1.065 1.044 0 1.82-0.323 2.56-1.065 0.704-0.707 1.067-1.529 1.067-2.425 0-0.755 0.217-1.195 0.708-1.44 0.161-0.084 0.351-0.133 0.552-0.133 0.172 0 0.335 0.036 0.483 0.1l-0.008-0.003c0.119 0.055 0.38 0.245 0.583 0.424 0.424 0.377 0.9 0.641 1.468 0.816 0.585 0.18 1.459 0.169 2.053-0.025 0.591-0.192 1.053-0.476 1.492-0.916 0.44-0.439 0.724-0.901 0.916-1.492 0.195-0.595 0.205-1.468 0.025-2.053-0.171-0.569-0.452-1.060-0.819-1.472l0.003 0.004c-0.156-0.171-0.296-0.362-0.415-0.567l-0.009-0.016c-0.061-0.14-0.097-0.304-0.097-0.476 0-0.202 0.049-0.392 0.136-0.559l-0.003 0.007c0.239-0.479 0.688-0.708 1.387-0.708 0.841 0 1.683-0.379 2.371-1.067 0.745-0.745 1.067-1.517 1.067-2.56s-0.323-1.819-1.065-2.561c-0.724-0.724-1.324-0.987-2.429-1.063-0.353-0.025-0.728-0.080-0.832-0.124-0.587-0.245-0.912-1.121-0.64-1.721 0.055-0.119 0.245-0.38 0.424-0.583 0.377-0.424 0.641-0.9 0.816-1.468 0.18-0.585 0.169-1.459-0.025-2.053-0.187-0.587-0.503-1.089-0.915-1.491l-0.001-0.001c-0.403-0.413-0.905-0.729-1.467-0.909l-0.025-0.007c-0.6-0.196-1.472-0.207-2.053-0.027-0.569 0.173-1.060 0.454-1.472 0.821l0.004-0.003c-0.171 0.156-0.362 0.296-0.567 0.415l-0.016 0.009c-0.14 0.061-0.304 0.097-0.476 0.097-0.202 0-0.392-0.049-0.559-0.136l0.007 0.003c-0.479-0.239-0.708-0.688-0.708-1.387 0-0.441-0.168-1.068-0.411-1.533-0.273-0.525-0.968-1.22-1.493-1.493-0.51-0.26-1.112-0.413-1.75-0.413-0.327 0-0.645 0.040-0.948 0.116l0.027-0.006zM16.544 2.407c0.397 0.1 0.944 0.644 1.053 1.051 0.029 0.109 0.076 0.451 0.103 0.757 0.027 0.308 0.101 0.715 0.165 0.905 0.369 1.072 1.263 1.873 2.366 2.104l0.021 0.004c0.988 0.209 1.952-0.065 2.815-0.8 0.573-0.489 0.795-0.587 1.333-0.587 0.517 0 0.817 0.12 1.16 0.463 0.363 0.363 0.493 0.679 0.492 1.189 0 0.537-0.099 0.761-0.579 1.325-0.619 0.725-0.853 1.329-0.855 2.195 0 1.284 0.544 2.253 1.621 2.893 0.352 0.209 0.863 0.344 1.483 0.392 0.751 0.056 0.96 0.112 1.247 0.331 0.481 0.368 0.695 0.788 0.695 1.371s-0.213 1.003-0.695 1.371c-0.28 0.213-0.473 0.267-1.184 0.329-1.048 0.092-1.815 0.476-2.377 1.192-0.433 0.54-0.695 1.233-0.695 1.987 0 0.367 0.062 0.719 0.176 1.047l-0.007-0.022c0.157 0.469 0.309 0.721 0.735 1.216 0.441 0.513 0.541 0.749 0.541 1.28 0.001 0.505-0.129 0.827-0.477 1.175s-0.669 0.479-1.175 0.477c-0.539 0-0.761-0.099-1.333-0.587-1.073-0.915-2.344-1.117-3.531-0.561-0.613 0.293-1.107 0.753-1.434 1.32l-0.008 0.016c-0.209 0.352-0.344 0.863-0.392 1.483-0.056 0.751-0.112 0.96-0.331 1.247-0.368 0.481-0.788 0.695-1.371 0.695s-1.003-0.213-1.371-0.695c-0.213-0.28-0.277-0.508-0.335-1.201-0.049-0.609-0.141-0.924-0.409-1.409-0.572-1.035-1.876-1.733-3.071-1.645-0.464 0.033-1.105 0.229-1.443 0.441-0.225 0.154-0.42 0.306-0.606 0.469l0.007-0.006c-0.515 0.441-0.749 0.541-1.28 0.541-0.523 0-0.817-0.12-1.175-0.477s-0.477-0.652-0.477-1.175c0-0.532 0.1-0.767 0.544-1.281 0.949-1.1 1.161-2.347 0.607-3.569-0.484-1.067-1.633-1.841-2.733-1.843-0.455-0.001-0.961-0.103-1.196-0.24-0.279-0.182-0.508-0.418-0.676-0.694l-0.005-0.010c-0.139-0.268-0.197-0.732-0.135-1.068 0.068-0.371 0.153-0.541 0.405-0.821 0.316-0.349 0.58-0.472 1.144-0.532 0.828-0.088 1.12-0.155 1.519-0.344 0.714-0.342 1.269-0.923 1.568-1.636l0.008-0.021c0.539-1.259 0.344-2.44-0.577-3.521-0.481-0.565-0.579-0.788-0.579-1.325 0-0.523 0.12-0.817 0.477-1.175s0.652-0.477 1.175-0.477c0.539 0 0.76 0.097 1.333 0.587 0.949 0.809 1.968 1.043 3.153 0.723 0.476-0.128 0.821-0.304 1.183-0.605 0.683-0.568 1.131-1.485 1.131-2.316 0-0.732 0.177-1.213 0.58-1.577 0.463-0.417 0.976-0.525 1.671-0.352zM15.227 11.075c-1.923 0.307-3.52 1.767-4.064 3.713-0.132 0.472-0.132 1.952 0 2.424 0.503 1.796 1.787 3.083 3.611 3.617 0.5 0.148 1.955 0.147 2.453 0 1.819-0.535 3.068-1.784 3.603-3.603 0.148-0.5 0.148-1.953 0-2.453-0.532-1.808-1.761-3.051-3.549-3.585-0.256-0.076-0.549-0.108-1.12-0.121-0.114-0.005-0.247-0.007-0.381-0.007-0.194 0-0.387 0.006-0.579 0.016l0.027-0.001zM16.909 13.121c0.864 0.252 1.695 1.080 1.976 1.968 0.155 0.489 0.155 1.332 0 1.821-0.279 0.884-1.091 1.696-1.975 1.975-0.489 0.155-1.332 0.155-1.821 0-0.884-0.279-1.696-1.091-1.975-1.975-0.155-0.489-0.155-1.332 0-1.821 0.201-0.639 0.687-1.255 1.303-1.655 0.704-0.457 1.604-0.571 2.492-0.313z"></path>
</svg>
