<!-- Generated by IcoMoon.io -->
<svg version="1.1" xmlns="http://www.w3.org/2000/svg" width="32" height="32" viewBox="0 0 32 32">
<path d="M10.3 3.756c-5.787 2.171-5.708 2.137-5.872 2.533-0.041 0.101-0.053 1.695-0.041 5.553 0.016 5.317 0.019 5.42 0.132 5.971 0.568 2.739 1.884 5.013 4.307 7.444 1.575 1.581 3.331 2.944 5.441 4.225 0.965 0.587 1.445 0.811 1.733 0.811s0.768-0.224 1.733-0.811c2.111-1.281 3.867-2.644 5.441-4.225 2.419-2.427 3.735-4.703 4.305-7.444 0.115-0.551 0.117-0.647 0.133-5.971 0.012-3.859 0-5.452-0.041-5.553-0.164-0.396-0.085-0.363-5.872-2.533-4.22-1.583-5.515-2.048-5.7-2.048s-1.48 0.465-5.7 2.048zM20.88 5.541l4.8 1.803 0.016 4.181c0.016 4.5-0.015 5.376-0.225 6.288-0.359 1.56-1.155 3.107-2.405 4.669-0.553 0.691-1.968 2.112-2.745 2.755-1.212 1.003-2.731 2.073-3.88 2.736l-0.44 0.255-0.44-0.255c-1.151-0.663-2.671-1.735-3.88-2.737-0.784-0.649-2.2-2.069-2.747-2.753-1.253-1.571-2.045-3.111-2.404-4.669-0.211-0.912-0.241-1.788-0.225-6.288l0.016-4.181 4.8-1.803c2.64-0.992 4.836-1.803 4.88-1.803s2.24 0.811 4.88 1.803z"></path>
</svg>
