<!-- Generated by IcoMoon.io -->
<svg version="1.1" xmlns="http://www.w3.org/2000/svg" width="32" height="32" viewBox="0 0 32 32">
<path d="M14.308 1.791c-5.207 0.643-9.502 3.998-11.47 8.587l-0.036 0.093c-0.697 1.634-1.102 3.534-1.102 5.529s0.405 3.896 1.138 5.624l-0.036-0.095c1.486 3.472 4.196 6.182 7.575 7.632l0.093 0.036c3.481 1.459 7.532 1.468 10.997 0.027 3.524-1.485 6.271-4.232 7.721-7.662l0.035-0.094c1.441-3.465 1.432-7.516-0.027-10.997-1.805-4.309-5.7-7.535-10.223-8.467-1.432-0.295-3.291-0.38-4.667-0.213zM17.813 3.791c4.844 0.687 8.876 4.3 10.137 9.085 0.515 1.949 0.515 4.299 0 6.248-1.283 4.766-5.223 8.347-10.096 9.086l-0.069 0.009c-1.527 0.228-3.423 0.125-4.911-0.268-4.767-1.282-8.348-5.222-9.086-10.096l-0.009-0.068c-0.143-0.959-0.155-2.48-0.025-3.413 0.568-4.107 3.115-7.655 6.78-9.445 2.305-1.127 4.704-1.501 7.277-1.137zM11.6 11.116c-0.333 0.157-0.56 0.491-0.56 0.877 0 0.002 0 0.005 0 0.007v-0c0 0.983 1.327 1.335 1.807 0.48 0.363-0.645-0.095-1.444-0.825-1.437-0 0-0 0-0.001 0-0.151 0-0.296 0.027-0.429 0.076l0.009-0.003zM19.6 11.116c-0.333 0.157-0.56 0.491-0.56 0.877 0 0.002 0 0.005 0 0.007v-0c0 0.983 1.327 1.335 1.807 0.48 0.363-0.645-0.095-1.444-0.825-1.437-0 0-0 0-0.001 0-0.151 0-0.296 0.027-0.429 0.076l0.009-0.003zM10.213 17.807c-0.441 0.273-0.623 0.761-0.451 1.215 0.099 0.259 0.615 0.845 1.113 1.263 1.152 0.967 2.155 1.496 3.471 1.835 0.512 0.131 0.649 0.144 1.6 0.145 1.115 0.003 1.504-0.052 2.344-0.328 1.245-0.408 2.855-1.487 3.604-2.412 0.324-0.403 0.399-0.563 0.399-0.857-0.001-0.384-0.219-0.717-0.538-0.883l-0.006-0.003c-0.171-0.088-0.561-0.097-0.772-0.017-0.081 0.031-0.425 0.325-0.763 0.656-1.395 1.36-2.607 1.908-4.215 1.908s-2.82-0.548-4.215-1.908c-0.337-0.331-0.681-0.625-0.763-0.656-0.236-0.089-0.629-0.069-0.809 0.043z"></path>
</svg>
