<!-- Generated by IcoMoon.io -->
<svg version="1.1" xmlns="http://www.w3.org/2000/svg" width="32" height="32" viewBox="0 0 32 32">
<path d="M12.385 1.815c-1.161 0.304-2.172 1.276-2.549 2.452-0.073 0.229-0.101 0.559-0.125 1.52l-0.031 1.227-3.013 0.027c-2.152 0.019-3.044 0.044-3.12 0.089-0.193 0.128-0.346 0.302-0.446 0.507l-0.003 0.008c-0.039 0.102-0.061 0.22-0.061 0.343 0 0.259 0.099 0.495 0.262 0.671l-0.001-0.001c0.247 0.261 0.304 0.275 1.369 0.303l1.013 0.027 0.027 9.227c0.025 8.789 0.032 9.24 0.125 9.52 0.2 0.597 0.468 1.023 0.94 1.495 0.521 0.523 0.985 0.795 1.633 0.96 0.4 0.103 0.62 0.105 7.595 0.105 6.991 0 7.193-0.003 7.597-0.105 1.155-0.296 2.151-1.239 2.556-2.419l0.113-0.329 0.053-18.453 1.013-0.027c0.625-0.016 1.055-0.051 1.12-0.089 0.557-0.324 0.68-1.075 0.249-1.528-0.074-0.080-0.155-0.15-0.244-0.21l-0.005-0.003c-0.076-0.045-0.968-0.071-3.12-0.089l-3.013-0.027-0.031-1.227c-0.035-1.355-0.064-1.513-0.413-2.187-0.265-0.513-0.965-1.212-1.487-1.483-0.785-0.409-0.801-0.411-4.411-0.408-2.977 0.003-3.233 0.011-3.593 0.105zM19.212 3.725c0.431 0.143 0.94 0.664 1.064 1.091 0.040 0.139 0.065 0.603 0.068 1.211l0.003 0.987h-8.693l-0.016-0.8c-0.024-1.253 0.093-1.691 0.569-2.121 0.279-0.252 0.472-0.348 0.817-0.407 0.443-0.076 5.945-0.040 6.188 0.040zM24.347 17.973c0 7.139-0.015 9.033-0.068 9.211-0.135 0.445-0.649 0.96-1.095 1.095-0.328 0.1-14.040 0.1-14.368 0-0.429-0.131-0.945-0.633-1.093-1.067-0.053-0.157-0.071-2.065-0.083-9.157-0.008-4.928-0.004-8.991 0.011-9.027 0.021-0.055 1.667-0.065 8.361-0.055l8.335 0.013v8.987zM12.933 13.783c-0.223 0.115-0.398 0.298-0.5 0.521l-0.003 0.007c-0.039 0.101-0.057 1.515-0.057 4.361 0 4.579-0.011 4.407 0.3 4.697 0.162 0.159 0.385 0.258 0.63 0.258 0.011 0 0.021-0 0.031-0.001l-0.002 0c0.267 0 0.469-0.079 0.66-0.257 0.311-0.291 0.3-0.119 0.3-4.697 0-2.847-0.019-4.26-0.057-4.361-0.105-0.234-0.285-0.419-0.508-0.528l-0.006-0.003c-0.116-0.043-0.25-0.068-0.39-0.068-0.143 0-0.279 0.026-0.406 0.073l0.008-0.003zM18.267 13.783c-0.223 0.115-0.398 0.298-0.5 0.521l-0.003 0.007c-0.039 0.101-0.057 1.515-0.057 4.361 0 4.579-0.011 4.407 0.3 4.697 0.162 0.159 0.385 0.258 0.63 0.258 0.011 0 0.021-0 0.032-0.001l-0.002 0c0.267 0 0.469-0.079 0.66-0.257 0.311-0.291 0.3-0.119 0.3-4.697 0-2.847-0.019-4.26-0.057-4.361-0.105-0.234-0.285-0.419-0.508-0.528l-0.006-0.003c-0.116-0.043-0.25-0.068-0.39-0.068-0.143 0-0.279 0.026-0.406 0.073l0.008-0.003z"></path>
</svg>
