<!-- Generated by IcoMoon.io -->
<svg version="1.1" xmlns="http://www.w3.org/2000/svg" width="32" height="32" viewBox="0 0 32 32">
<path d="M14.88 3.124c-2.299 0.437-4.134 2.066-4.859 4.206l-0.013 0.045c-0.192 0.585-0.302 1.259-0.302 1.959s0.11 1.373 0.315 2.005l-0.013-0.046c0.545 1.636 1.697 2.944 3.182 3.681l0.037 0.016c0.88 0.433 1.767 0.637 2.773 0.637 2.744 0 5.116-1.716 5.992-4.335 0.192-0.585 0.302-1.259 0.302-1.959s-0.11-1.373-0.315-2.005l0.013 0.046c-0.642-1.913-2.12-3.392-3.989-4.020l-0.045-0.013c-0.881-0.295-2.159-0.384-3.079-0.217zM17.12 5.127c1.452 0.361 2.712 1.628 3.097 3.113 0.083 0.321 0.111 0.592 0.111 1.093s-0.028 0.772-0.111 1.093c-0.425 1.524-1.6 2.699-3.093 3.117l-0.031 0.007c-0.596 0.155-1.591 0.155-2.187 0-1.524-0.425-2.699-1.6-3.117-3.093l-0.007-0.031c-0.155-0.596-0.155-1.591 0-2.187 0.368-1.421 1.544-2.653 2.925-3.068 0.387-0.114 0.832-0.18 1.292-0.18 0.398 0 0.784 0.049 1.153 0.141l-0.033-0.007zM9.6 19.117c-2.363 0.448-4.175 2.013-4.925 4.257-0.26 0.781-0.301 1.195-0.301 3.093 0 1.9 0.008 1.963 0.3 2.235 0.276 0.259 0.696 0.333 1.049 0.185 0.231-0.097 0.505-0.419 0.54-0.633 0.015-0.096 0.037-0.931 0.049-1.855 0.023-1.925 0.061-2.157 0.485-3.013 0.559-1.129 1.54-1.92 2.829-2.28l0.427-0.12h11.893l0.427 0.12c1.289 0.36 2.271 1.151 2.829 2.28 0.424 0.856 0.463 1.088 0.485 3.013 0.012 0.924 0.035 1.759 0.049 1.855 0.035 0.215 0.309 0.536 0.54 0.633 0.495 0.207 1.109-0.047 1.292-0.532 0.097-0.255 0.075-3.557-0.027-4.093-0.512-2.699-2.44-4.627-5.139-5.139-0.387-0.073-1.193-0.083-6.449-0.079-4.511 0.005-6.095 0.023-6.355 0.072z"></path>
</svg>
