<!-- Generated by IcoMoon.io -->
<svg version="1.1" xmlns="http://www.w3.org/2000/svg" width="32" height="32" viewBox="0 0 32 32">
<path d="M25.067 5.66c-0.351 0.139-0.601 0.527-0.601 0.928 0 0.348 0.049 0.435 0.581 1.012 1.725 1.861 2.89 4.264 3.215 6.925l0.006 0.060c0.080 0.684 0.080 2.145 0 2.829-0.331 2.722-1.496 5.124-3.229 6.993l0.007-0.008c-0.532 0.577-0.581 0.664-0.581 1.012 0 0.735 0.708 1.192 1.376 0.888 0.217-0.099 0.699-0.584 1.251-1.26 1.599-1.96 2.675-4.404 3.075-6.987 0.14-0.913 0.14-3.193 0-4.107-0.4-2.583-1.476-5.027-3.075-6.987-0.552-0.676-1.033-1.161-1.251-1.26-0.13-0.058-0.281-0.092-0.44-0.092-0.12 0-0.235 0.019-0.342 0.055l0.008-0.002zM14.237 5.801c-0.101 0.052-1.629 1.252-3.397 2.667l-3.212 2.572h-2.589c-2.080 0-2.623 0.015-2.76 0.073-0.23 0.112-0.409 0.297-0.512 0.524l-0.003 0.007c-0.039 0.101-0.057 1.515-0.057 4.361 0 3.457 0.013 4.243 0.073 4.383 0.112 0.23 0.297 0.409 0.524 0.512l0.007 0.003c0.099 0.037 1.037 0.057 2.733 0.057h2.584l3.201 2.561c1.76 1.409 3.277 2.609 3.372 2.667 0.207 0.125 0.668 0.141 0.881 0.031 0.212-0.124 0.38-0.305 0.484-0.522l0.003-0.007c0.040-0.104 0.057-3.079 0.057-9.689s-0.017-9.585-0.057-9.689c-0.105-0.234-0.285-0.419-0.508-0.528l-0.006-0.003c-0.114-0.044-0.245-0.070-0.383-0.070-0.157 0-0.307 0.034-0.441 0.094l0.007-0.003zM13.707 16c0 3.989-0.015 7.253-0.033 7.253s-1.153-0.896-2.523-1.992c-0.502-0.416-1.363-1.102-2.229-1.78l-0.415-0.313c-0.145-0.095-0.309-0.103-2.504-0.128l-2.349-0.027v-6.027l4.701-0.053 0.209-0.143c0.115-0.079 1.301-1.019 2.636-2.091s2.445-1.951 2.467-1.951c0.023-0.001 0.040 3.261 0.040 7.251zM20.433 10.329c-0.071 0.015-0.241 0.14-0.379 0.279-0.417 0.416-0.425 0.852-0.027 1.343 0.787 0.965 0.985 1.277 1.268 1.996 0.276 0.699 0.369 1.215 0.369 2.027 0 1.492-0.505 2.808-1.492 3.881-0.437 0.476-0.531 0.787-0.357 1.2 0.168 0.403 0.48 0.613 0.904 0.613 0.343 0 0.523-0.095 0.856-0.449 0.937-1.009 1.614-2.272 1.917-3.673l0.009-0.052c0.139-0.644 0.139-2.343 0-2.987-0.226-1.047-0.627-1.973-1.174-2.792l0.018 0.029c-0.332-0.501-0.852-1.1-1.127-1.295-0.152-0.108-0.553-0.169-0.787-0.12z"></path>
</svg>
