<!-- Generated by IcoMoon.io -->
<svg version="1.1" xmlns="http://www.w3.org/2000/svg" width="32" height="32" viewBox="0 0 32 32">
<path d="M7.6 7.116c-0.476 0.212-0.688 0.791-0.477 1.299 0.057 0.139 1.205 1.323 3.772 3.892l3.691 3.693-3.691 3.693c-2.567 2.569-3.715 3.753-3.772 3.892-0.056 0.119-0.089 0.259-0.089 0.406 0 0.538 0.436 0.975 0.975 0.975 0.147 0 0.287-0.033 0.412-0.091l-0.006 0.003c0.139-0.057 1.323-1.205 3.892-3.772l3.693-3.691 3.693 3.691c2.569 2.567 3.753 3.715 3.892 3.772 0.119 0.056 0.259 0.089 0.406 0.089 0.538 0 0.975-0.436 0.975-0.975 0-0.147-0.033-0.287-0.091-0.412l0.003 0.006c-0.057-0.139-1.205-1.323-3.772-3.892l-3.691-3.693 3.691-3.693c2.567-2.569 3.715-3.753 3.772-3.892 0.056-0.119 0.089-0.259 0.089-0.406 0-0.538-0.436-0.975-0.975-0.975-0.147 0-0.287 0.033-0.412 0.091l0.006-0.003c-0.139 0.057-1.323 1.205-3.892 3.772l-3.693 3.691-3.693-3.691c-2.569-2.567-3.753-3.715-3.892-3.772-0.123-0.049-0.267-0.077-0.416-0.077-0.143 0-0.28 0.026-0.406 0.073l0.008-0.003z"></path>
</svg>
