<?xml version="1.0" ?><svg height="1000" viewBox="0 0 1000 1000" width="1000" xmlns="http://www.w3.org/2000/svg"><path d="m664.6857 110.2535q1.3313 6.5979 2.7357 13.18c-4.2678.1873-8.5467.2352-12.8079.3074-2.8228.0478-5.6452.1061-8.4659.222-1.3819.0569-2.8572.0423-3.8772 1.14a4.2519 4.2519 0 0 0 -.6259 4.1439c1.1595 4.289 2.2316 8.6272 3.618 12.85q.652 1.986 1.4461 3.915l.02.0485q.3258.7869.68 1.5592c.0669.1464.1356.2921.2043.4379q.2613.5526.5395 1.0963c.1274.25.2564.4989.3893.746.1315.2435.2679.4836.4049.7237.1849.3254.3719.65.568.9687.0915.1485.1887.2935.2827.4413.24.3768.4833.7522.74 1.1186.059.0839.1235.1651.1835.2484.2894.4031.5819.8042.8938 1.1928l.0041.0055c.0732.0916.1544.1756.2287.2665.3108.3761.6214.7529.9551 1.1137a27.05 27.05 0 0 0 8.408 6.06c.0673.0319.1339.0645.2015.0957.4.1839.805.3567 1.213.5219.1145.0471.2255.1013.34.1464.0937.0374.1909.0673.2849.1034q.4105.156.8254.299.54.1884 1.0877.3567c.0856.0264.1693.0583.2553.084.0815.0242.1665.043.2484.0666q.6131.1769 1.2338.33c.1859.0465.3726.0909.56.1346.2942.0673.5888.1318.8851.1915a36.0925 36.0925 0 0 0 8.5075.7563c4.3153-.0721 9.1233-1.131 11.936-4.6629a10.4916 10.4916 0 0 0 .81-1.1942c.12-.1936.2318-.3942.3393-.5982.0139-.027.0292-.0541.0427-.0812a10.4 10.4 0 0 0 .8306-2.15 15.6345 15.6345 0 0 0 .4642-3.9309l.0014-.1013c0-.1908-.0031-.3809-.0083-.5718a73.5459 73.5459 0 0 0 -.8532-7.961q-1.2074-9.403-2.414-18.806c.2411-.059.4833-.1117.724-.1735 2.6559-.6807 1.53-4.7934-1.1334-4.1113a89.0752 89.0752 0 0 1 -15.8726 2.405q-5.46-25.5809-9.8765-51.3691-1.2444-7.2735-2.4041-14.56a2.1474 2.1474 0 0 0 -2.6222-1.4884 2.1836 2.1836 0 0 0 -1.4887 2.6223q4.1461 26.0231 9.3574 51.861zm-19.0513 17.2086c.0319.0181.0278.075.0087.1437-.0125-.0819-.0198-.1499-.0087-.1437zm-.7185.8244a.6618.6618 0 0 0 .1933.0041.1735.1735 0 0 1 -.1933-.0041zm40.1971 7.4835c-1.9991.2124-4.0159.304-6.0171.4407l-8.4056.5724a23.484 23.484 0 0 0 -6.1472.9868 9.9863 9.9863 0 0 0 -4.019 2.4619c-.23.2331-.5905.71-.772.7654a2.1718 2.1718 0 0 1 -.6911-.21c-.4837-.1957-.9531-.426-1.444-.6065a15.4 15.4 0 0 0 -3.584-.7771 23.244 23.244 0 0 0 -5.1275.0763c-.8119-2.6493-1.4992-5.3381-2.217-8.0131-.255-.95-.5139-1.8992-.7855-2.8443-.0361-.127-.076-.2533-.1142-.3809l.0208-.0007c2.5942-.1111 5.19-.1721 7.7863-.2186 10.1024-.1832 20.3086-.1964 30.2583-2.0588q.6292 4.9032 1.2588 9.8065z"/><path d="m653.2472 105.7917c1.6771.2027 2.56-1.938 1.8405-3.2079-2.413-4.257-6.1038-8.7257-11.562-8.0221-5.1706.6662-8.26 5.1293-10.1823 9.5564a3.2261 3.2261 0 0 0 -.1262.3559 2.1855 2.1855 0 0 0 2.1732 3.4986c5.852-1.4703 11.7817-2.9171 17.8568-2.1809zm-9.2854-7.0153c.07-.0111.1363-.009.2054-.0166a1.997 1.997 0 0 0 2.05 2.0213 1.936 1.936 0 0 0 1.6216-.7772 9.9131 9.9131 0 0 1 1.3136 1.3282 51.2055 51.2055 0 0 0 -10.36 1.4322c1.2135-1.9568 2.8351-3.6326 5.1694-3.9879z"/><path d="m672.5368 104.97c5.8523-1.47 11.7817-2.9172 17.8567-2.181 1.6775.2027 2.56-1.938 1.8406-3.2078-2.413-4.2571-6.1039-8.7258-11.5621-8.0222-5.1705.6662-8.2594 5.1286-10.1819 9.5564a3.1458 3.1458 0 0 0 -.1262.3559 2.1854 2.1854 0 0 0 2.1729 3.4987zm8.5714-9.1962a4.39 4.39 0 0 1 .75-.0451 1.9567 1.9567 0 0 0 2.0015 1.6306 2.0417 2.0417 0 0 0 1.1554-.3344 10.0184 10.0184 0 0 1 1.2837 1.3045 51.2174 51.2174 0 0 0 -10.3606 1.4322c1.214-1.9573 2.8357-3.6331 5.17-3.9883z"/><path d="m426.6022 608.6a29.19 29.19 0 0 0 13.8536 1.04 27.877 27.877 0 0 0 13.999-6.556c1.1183-.9783.6336-3.34-.94-3.5631a18.3459 18.3459 0 0 1 -7.0691-2.4051 11.578 11.578 0 0 1 -4.622-5.0494 9.1888 9.1888 0 0 1 -.389-5.6886 7.0354 7.0354 0 0 1 1.1973-2.6389 6.2042 6.2042 0 0 1 2.011-1.7493c2.3759-1.3753.2473-5.0224-2.1518-3.6811a57.4418 57.4418 0 0 1 -14.63 5.9633c.6308-.5461 1.2674-1.0734 1.8874-1.5675 2.2052-1.7569 4.7359-3.5611 7.0542-5.4582a32.3254 32.3254 0 0 0 6.1923-6.45 22.48 22.48 0 0 0 3.262-8.0909c.1728-.7619.3421-1.5245.5406-2.28.1068-.4059.221-.8105.35-1.21.0572-.1776.1166-.3553.18-.5308.0146-.04.1117-.288.1426-.3733a8.4748 8.4748 0 0 1 .4441-.8792c.07-.1193.1433-.2352.2179-.3518.0444-.07.0711-.1145.0877-.1443.02-.0222.0361-.04.0674-.0757.08-.0936.5343-.5287.5089-.5322.1187-.0874.2429-.1693.3692-.2442.0687-.041.6606-.3158.3566-.1971a2.195 2.195 0 0 0 1.4888-2.6222 2.147 2.147 0 0 0 -2.6222-1.4884 8.3424 8.3424 0 0 0 -4.4344 4.128 2.2869 2.2869 0 0 0 -1.9148 1.0422 7.2764 7.2764 0 0 1 -2.4061 2.19 12.3954 12.3954 0 0 1 -3.4153 1.3274 80.2863 80.2863 0 0 1 -8.1165 1.3719 37.1848 37.1848 0 0 0 -16.8069 7.238c-11.03 8.3934-17.1059 21.1861-20.4113 34.3652-.8884 3.5417-1.4749 7.1541-2.4085 10.684-.845 3.194-2.0387 6.322-4.3985 8.71a2.1318 2.1318 0 0 0 3.0147 3.015q6.98-5.8662 13.96-11.7324 3.4562-2.9038 6.9122-5.8093c1.8427-1.5481 3.788-3.6381 6.0935-4.4881 2.216-.8174 4.1974.4462 6.0535 1.6029a31.1479 31.1479 0 0 0 6.4919 3.1792z"/><path d="m601.8919 683.2288c-1.9249-1.2358-3.8338-2.4987-5.6771-3.8539a36.63 36.63 0 0 1 -8.9718-8.9256 20.0039 20.0039 0 0 1 -3.6478-13.1695c.1957-1.8679-2.4453-2.7714-3.6388-1.5071a24.4222 24.4222 0 0 0 -6.2325 15.8368c-.2894 6.3415 1.548 12.4867 4.03 18.2516 1.4773 3.4327 3.2162 6.7432 4.9561 10.0469a1.9433 1.9433 0 0 0 1.1456.9222 2.2565 2.2565 0 0 0 .1829 1.71 2.177 2.177 0 0 0 2.9164.7647q6.8655-3.27 13.73-6.5414c1.95-.9291 4.36-1.7069 5.8953-3.2967a4.8 4.8 0 0 0 .298-6.2839c-1.2875-1.7454-3.1943-2.8043-4.9863-3.9541z"/><path d="m308.5208 733.7111 2.5723 1.2088q.6026-1.2823 1.2132-2.56l-2.5646-1.2254q-.6147 1.2861-1.2209 2.5766z"/><path d="m310.9782 728.5659 2.557 1.2407q.6183-1.2739 1.2452-2.5445l-2.5494-1.2574q-.6301 1.2792-1.2528 2.5612z"/><path d="m306.1275 738.8869 2.5869 1.1769q.587-1.29 1.1813-2.5751l-2.58-1.1935q-.5978 1.2938-1.1882 2.5917z"/><path d="m303.7985 744.0925 2.6021 1.1436q.57-1.2969 1.1484-2.59l-2.5945-1.16q-.5818 1.3012-1.156 2.6064z"/><path d="m301.536 749.3259 2.616 1.1116q.5538-1.3041 1.1165-2.6035l-2.6084-1.13q-.5667 1.3098-1.1241 2.6219z"/><path d="m299.3381 754.587 2.6292 1.08q.538-1.31 1.0842-2.618l-2.6229-1.095q-.5491 1.3153-1.0905 2.633z"/><path d="m337.7779 684.7151 2.1185 1.8957c.6231-.6966 1.2615-1.3871 1.8974-2.0511l-2.0532-1.9651c-.6575.6869-1.3181 1.4003-1.9627 2.1205z"/><path d="m313.5 723.4526 2.541 1.2726q.6345-1.2667 1.2768-2.5279l-2.5327-1.2906q-.6468 1.2708-1.2851 2.5459z"/><path d="m321.4776 708.3062 2.4786 1.3906q.691-1.2314 1.3975-2.4529l-2.4592-1.4239q-.7171 1.2375-1.4169 2.4862z"/><path d="m317.2226 716.1826q-.5715 1.0918-1.1373 2.1872l2.5251 1.3045q.5625-1.0887 1.1314-2.1753l.1766-.338-2.5168-1.32z"/><path d="m318.7363 713.32 2.5071 1.3392q.6661-1.247 1.3441-2.489l-2.4939-1.3628q-.6849 1.2518-1.3573 2.5126z"/><path d="m366.1017 665.0917.91 2.6923c.8486-.2865 1.7143-.553 2.5726-.7924l-.7633-2.7381c-.9075.2533-1.8224.535-2.7193.8382z"/><path d="m330.6068 693.73 2.3149 1.65q.8144-1.1439 1.6566-2.2663l-2.2732-1.7056q-.8634 1.1505-1.6983 2.3219z"/><path d="m324.3472 703.3525 2.4383 1.46q.7245-1.2095 1.468-2.405l-2.4127-1.5016q-.7572 1.2146-1.4936 2.4466z"/><path d="m335.8884 686.8946q-.9283 1.1034-1.8236 2.233l2.2268 1.7667q.87-1.0971 1.7715-2.1692z"/><path d="m327.3788 698.4841 2.3842 1.5474q.7661-1.1814 1.5554-2.3447l-2.3523-1.5959q-.8061 1.1886-1.5873 2.3932z"/><path d="m346.0651 676.6541 1.8284 2.1761c.7147-.6009 1.444-1.1894 2.1674-1.7486l-1.74-2.2483c-.7528.5829-1.5119 1.1956-2.2558 1.8208z"/><path d="m345.7917 680.6648-1.9075-2.1066c-.705.6384-1.4145 1.3052-2.1088 1.9824l1.9839 2.0345c.6696-.6522 1.3534-1.2951 2.0324-1.9103z"/><path d="m350.65 673.1041 1.6466 2.3163c.7667-.5447 1.54-1.07 2.2992-1.5606l-1.5425-2.387c-.7933.5135-1.6025 1.0624-2.4033 1.6313z"/><path d="m356.962 672.4019c.8018-.4691 1.6182-.9215 2.4273-1.3441l-1.317-2.5188c-.8483.4434-1.7049.918-2.5452 1.4093z"/><path d="m360.6855 667.2532 1.1907 2.5813c.84-.3879 1.6952-.7556 2.5414-1.0936l-1.0533-2.64c-.8924.3564-1.7937.7443-2.6788 1.1523z"/><path d="m340.4407 726.7146 2.6854.9312c.2987-.8618.6287-1.73.98-2.5792l-2.6261-1.0866c-.3728.9006-.7222 1.8207-1.0393 2.7346z"/><path d="m342.6726 721.3126 2.5612 1.2324c.3945-.82.8209-1.6467 1.2667-2.4571l-2.49-1.37c-.4705.8551-.9205 1.728-1.3379 2.5947z"/><path d="m338.8618 732.3525 2.78.594c.19-.8889.4118-1.7882.66-2.6715l-2.7367-.7689c-.2641.9417-.5007 1.8992-.7033 2.8464z"/><path d="m346.497 714.6373q-.5183.7724-1.0106 1.5634l2.4134 1.5016q.4662-.7494.9572-1.4808.28-.4174.5679-.83l-2.3315-1.6251c-.2012.2887-.3996.5781-.5964.8709z"/><path d="m356.6841 702.9014 1.9228 2.0928c.6721-.6175 1.375-1.24 2.089-1.85l-1.8458-2.1608c-.7401.6323-1.4689 1.2776-2.166 1.918z"/><path d="m365.0674 699.6644-1.6965-2.28q-1.159.8617-2.2892 1.7611l1.77 2.2232q1.0936-.8702 2.2157-1.7043z"/><path d="m348.8164 711.42 2.25 1.7361c.5593-.7237 1.147-1.45 1.7469-2.1559l-2.1664-1.84c-.629.7406-1.2445 1.5011-1.8305 2.2598z"/><path d="m352.5731 706.9885 2.0852 1.9318c.6259-.6758 1.2761-1.3489 1.9332-2.0012l-2.0026-2.0165c-.6849.6794-1.3628 1.3816-2.0158 2.0859z"/><path d="m338.018 738.1625 2.8339.2165c.069-.9014.171-1.8194.3032-2.7277l-2.8124-.4094c-.1415.9721-.2508 1.9547-.3247 2.9206z"/><path d="m367.3389 698.0268q1.15-.8025 2.3215-1.5716l-1.562-2.3746q-1.2033.7911-2.386 1.6161z"/><path d="m340.74 741.1178-2.8422-.0167v.1929c0 .9153.0319 1.8416.0954 2.7541l2.8353-.197c-.0587-.8466-.0885-1.707-.0885-2.5571z"/><path d="m362.4816 730.5858 2.6112 1.1228a11.644 11.644 0 0 1 1.2466-2.2l-2.3072-1.66a14.5147 14.5147 0 0 0 -1.5506 2.7372z"/><path d="m361.5681 733.6119a13.0346 13.0346 0 0 0 -.205 2.2864q0 .4466.0322.8958l2.8346-.204c-.0166-.231-.0246-.4621-.0246-.6918a10.1994 10.1994 0 0 1 .1606-1.7868z"/><path d="m366.1413 725.51 1.8874 2.1247a10.61 10.61 0 0 1 2.049-1.4322l-1.3364-2.5077a13.3949 13.3949 0 0 0 -2.6 1.8152z"/><path d="m433.8427 637.823 1.6258 2.3315q1.1735-.8181 2.3363-1.6522l-1.657-2.3093q-1.147.8234-2.3051 1.63z"/><path d="m442.9244 631.1158 1.7507 2.2385q1.1273-.8815 2.2423-1.7778l-1.7819-2.2149q-1.0996.8847-2.2111 1.7542z"/><path d="m429.1679 640.9851 1.5592 2.3759q1.1968-.7848 2.3825-1.5877l-1.5939-2.3537q-1.1683.7922-2.3478 1.5655z"/><path d="m438.43 634.5318 1.6883 2.2871q1.1511-.85 2.29-1.716l-1.7195-2.2635q-1.1234.8546-2.2588 1.6924z"/><path d="m455.8194 620.1446 1.93 2.0872q1.0507-.9722 2.088-1.9582l-1.9582-2.0594q-1.0234.9721-2.0598 1.9304z"/><path d="m447.3233 627.5776 1.8111 2.19q1.1028-.9117 2.1927-1.84l-1.8419-2.1649q-1.0752.9153-2.1619 1.8149z"/><path d="m461.9156 614.2694q-.9949 1-2.0043 1.9859l1.9859 2.0331q1.0238-1 2.0335-2.0151z"/><path d="m451.6224 623.92 1.8714 2.1386q1.0767-.942 2.141-1.8985l-1.9-2.1136q-1.0505.9441-2.1124 1.8735z"/><path d="m467.9123 612.1606-2.07-1.9471q-.9675 1.0284-1.9488 2.0415l2.0421 1.9762q.9957-1.0284 1.9767-2.0706z"/><path d="m471.7776 607.94-2.1226-1.89q-.9388 1.0543-1.8919 2.0948l2.0962 1.9193q.9665-1.0552 1.9183-2.1241z"/><path d="m424.406 644.0167 1.4933 2.4189q1.2173-.7515 2.4248-1.521l-1.5273-2.3967q-1.1907.7587-2.3908 1.4988z"/><path d="m419.5623 646.9158 1.4259 2.4592q1.2377-.7182 2.4654-1.453l-1.4592-2.4384q-1.2111.7244-2.4321 1.4322z"/><path d="m511.2017 603.3065 1.8472 2.1608q1.075-.92 2.1594-1.8305l-1.8292-2.1761q-1.0927.9193-2.1774 1.8458z"/><path d="m488.64 625.2045q-.9461 1.0762-1.8732 2.1684l2.1671 1.8388q.9107-1.0731 1.8405-2.1309z"/><path d="m484.4558 630.1624q-.6645.8221-1.318 1.6556l2.2378 1.7528q.64-.817 1.291-1.6223l.4652-.5725-2.2-1.7986z"/><path d="m510.9051 607.3151-1.8659-2.1441q-1.0779.9389-2.1456 1.8853l1.8867 2.1261q1.0571-.9388 2.1248-1.8673z"/><path d="m479.6919 636.4116 2.3092 1.657q.82-1.1428 1.663-2.2669l-2.2732-1.7056q-.8609 1.148-1.699 2.3155z"/><path d="m525.0131 591.279h2.8417v2.8425h-2.8417z" transform="matrix(.78456972 -.62004061 .62004061 .78456972 -254.0883 454.0954)"/><path d="m515.5694 599.6337 1.8132 2.1885q1.0908-.9034 2.1878-1.7992l-1.7985-2.2011q-1.1044.9024-2.2025 1.8118z"/><path d="m519.9854 596.024 1.7847 2.2122q1.1033-.89 2.2107-1.775l-1.7742-2.2205q-1.1127.8893-2.2212 1.7833z"/><path d="m529.4859 587.7724h2.8417v2.8418h-2.8417z" transform="matrix(.78818694 -.61543589 .61543589 .78818694 -250.1577 451.5375)"/><path d="m476.4465 641.1551 2.3815 1.5515q.7676-1.1782 1.5609-2.3363l-2.3454-1.6057q-.8114 1.1854-1.597 2.3905z"/><path d="m494.5662 622.91-2.0719-1.9457q-.9806 1.044-1.9443 2.1032l2.1025 1.9124q.9486-1.0431 1.9137-2.0699z"/><path d="m498.4909 618.8581-2.0123-2.0068q-1.0111 1.0128-2.0064 2.04l2.04 1.979q.9816-1.0116 1.9787-2.0122z"/><path d="m502.5325 614.914-1.9582-2.0595q-1.0371.9856-2.0608 1.9839l1.9845 2.0345q1.0101-.9858 2.0345-1.9589z"/><path d="m462.24 672.5123 2.7506.7147q.3518-1.3532.747-2.6958l-2.7271-.8022q-.4077 1.3864-.7705 2.7833z"/><path d="m533.9725 584.2827h2.8415v2.842h-2.8415z" transform="matrix(.79016678 -.61289188 .61289188 .79016678 -246.6298 451.0383)"/><path d="m468.0851 656.2439 2.5826 1.1865q.585-1.274 1.2046-2.5348l-2.5514-1.2532q-.6349 1.2938-1.2358 2.6015z"/><path d="m473.418 646.0443 2.4508 1.4391q.7114-1.2115 1.4517-2.405l-2.4162-1.4975q-.7576 1.2231-1.4863 2.4634z"/><path d="m470.6237 651.0736 2.5181 1.3184q.6512-1.2438 1.333-2.4709l-2.4841-1.3809q-.6994 1.2584-1.367 2.5334z"/><path d="m463.8665 666.9729 2.7007.8854q.436-1.3291.9121-2.6486l-2.6736-.9645q-.4897 1.3583-.9392 2.7277z"/><path d="m506.6751 611.0712-1.9082-2.1067q-1.06.9607-2.1071 1.9318l1.9325 2.0845q1.0358-.9608 2.0828-1.9096z"/><path d="m465.8243 661.5466 2.6445 1.0409q.5131-1.3032 1.0637-2.5931l-2.6139-1.1158q-.5663 1.327-1.0943 2.668z"/><path d="m489.2034 682.6147 2.8318.2442c.068-.7889.1628-1.5876.2811-2.3752l-2.81-.4232c-.128.8465-.2296 1.7056-.3029 2.5542z"/><path d="m490.0472 677.1683 2.7735.62c.1985-.8868.4313-1.7791.6922-2.6527l-2.7236-.8133c-.2793.9371-.5293 1.8947-.7421 2.846z"/><path d="m505.1114 656.8281-1.8874-2.1247c-.7248.6432-1.4409 1.3267-2.1289 2.031l2.0338 1.986c.6411-.6565 1.3077-1.2928 1.9825-1.8923z"/><path d="m497.2978 661.2246 2.2933 1.6793c.5381-.7349 1.1088-1.4593 1.6962-2.1539l-2.17-1.836c-.6302.7452-1.2422 1.5224-1.8195 2.3106z"/><path d="m491.7261 671.5366 2.6611.9979c.3192-.8508.6731-1.7036 1.0513-2.5355l-2.5869-1.1769c-.4052.8903-.7837 1.8034-1.1255 2.7145z"/><path d="m495.6435 663.6533c-.5218.825-1.0211 1.6785-1.4842 2.5362l2.5008 1.35c.4323-.8008.8986-1.5974 1.3857-2.3683z"/><path d="m546.7767 745.091 2.827-.2942q-.1483-1.4238-.3178-2.8456l-2.8221.3358q.1662 1.401.3129 2.804z"/><path d="m547.2753 750.71 2.8346-.2081q-.1051-1.4282-.2314-2.8547l-2.8311.2512q.1244 1.4042.2279 2.8116z"/><path d="m547.6046 756.3419 2.8394-.1228q-.062-1.4312-.1454-2.86l-2.8373.1652q.0822 1.4079.1433 2.8176z"/><path d="m547.2128 778.8894 2.8339.222q.1114-1.4269.2019-2.8568l-2.8366-.179q-.0889 1.4084-.1992 2.8138z"/><path d="m547.5685 773.26 2.8387.1346q.0681-1.43.1148-2.8609l-2.8408-.093q-.0457 1.4101-.1127 2.8193z"/><path d="m546.6855 784.5051 2.8255.3094q.1562-1.4238.29-2.85l-2.83-.2651q-.1317 1.4033-.2855 2.8057z"/><path d="m545.985 790.1006 2.8144.397q.2-1.4187.3775-2.84l-2.82-.3525q-.1753 1.3994-.3719 2.7955z"/><path d="m547.7517 767.6219 2.8415.0485q.0249-1.4322.0277-2.8637l-2.8422-.0055q-.0031 1.4088-.027 2.8207z"/><path d="m546.1085 739.4892 2.8165-.3788q-.19-1.42-.4031-2.836l-2.811.4219q.2091 1.3937.3976 2.7929z"/><path d="m545.272 733.91 2.8041-.4635q-.2337-1.4135-.4885-2.8221l-2.7971.5065q.2513 1.3871.4815 2.7791z"/><path d="m547.7631 761.9805 2.8422-.0375q-.0192-1.4312-.0593-2.863l-2.8408.08q.0395 1.41.0579 2.8205z"/><path d="m546.4815 725.0048-2.78.5912q.2931 1.3791.5652 2.7631l2.7888-.5482q-.2761-1.405-.574-2.8061z"/><path d="m543.7611 713.8789-2.7389.7591q.3764 1.3593.7328 2.7243l2.75-.7189q-.3618-1.3834-.7439-2.7645z"/><path d="m545.2064 719.421-2.761.6759q.3353 1.37.6492 2.7444l2.7707-.6329q-.319-1.3957-.6589-2.7874z"/><path d="m540.3648 702.94-2.6868.9257q.46 1.3332.8979 2.6729l2.7014-.8841q-.4455-1.3601-.9125-2.7145z"/><path d="m542.1474 708.3839-2.7145.8424q.4184 1.3468.8157 2.7l2.727-.8008q-.4034-1.3738-.8282-2.7416z"/><path d="m536.2965 692.2307-2.6243 1.0922q.5417 1.3022 1.0633 2.6125l2.64-1.0519q-.5289-1.3292-1.079-2.6528z"/><path d="m545.1117 795.6719 2.8006.4844q.2441-1.4113.4659-2.8263l-2.8082-.44q-.2179 1.3927-.4583 2.7819z"/><path d="m538.4139 697.5536-2.6569 1.01q.5006 1.3167.98 2.6431l2.6729-.9673q-.4872-1.3465-.996-2.6858z"/><path d="m544.3259 799.9165 2.7888.55q.1467-.7443.2879-1.49l-2.7929-.5288q-.1389.7347-.2838 1.4688z"/><path d="m569.1556 774.753 2.8339.2207q.1108-1.428.1995-2.8582l-2.8367-.1762q-.0874 1.4092-.1967 2.8137z"/><path d="m569.5036 769.1248 2.8394.13q.0542-1.1907.0937-2.3815l-2.8408-.0943q-.0385 1.1745-.0923 2.3458z"/><path d="m558.0949 824.1106 2.6562 1.01q.51-1.3384.9971-2.6861l-2.6722-.9673q-.4803 1.3254-.9811 2.6434z"/><path d="m563.3432 808.0344 2.7409.7522q.3793-1.3822.7362-2.7694l-2.7527-.7077q-.3508 1.3646-.7244 2.7249z"/><path d="m567.9229 785.9616 2.8137.401q.2019-1.4187.3813-2.84l-2.82-.3553q-.1764 1.3988-.375 2.7943z"/><path d="m568.6282 780.3674 2.8249.3108q.1572-1.4238.2907-2.85l-2.83-.2651q-.1314 1.4037-.2856 2.8043z"/><path d="m564.7493 802.5734 2.7631.6648q.3353-1.3917.6485-2.79l-2.7735-.6217q-.3081 1.3768-.6381 2.7469z"/><path d="m567.04 791.5322 2.8.4885q.2467-1.41.4708-2.8263l-2.8075-.4441q-.2199 1.3928-.4633 2.7819z"/><path d="m565.9821 797.0715 2.7832.5774q.2908-1.4031.56-2.81l-2.7915-.5329q-.2649 1.3849-.5517 2.7655z"/><path d="m560.0145 818.8078 2.6875.9257q.4663-1.3553.9107-2.7173l-2.702-.8813q-.4371 1.3397-.8962 2.6729z"/><path d="m561.7646 813.4489 2.7159.8382q.4226-1.3688.8236-2.7437l-2.7284-.7966q-.3949 1.3542-.8111 2.7021z"/><path d="m496.9307 843.1025 2.2087 1.7889q.8841-1.0919 1.7933-2.1622l-2.1663-1.84q-.9311 1.0959-1.8357 2.2133z"/><path d="m508.6867 830.4951 1.938 2.0789q1.0273-.9574 2.0769-1.8922l-1.8895-2.1233q-1.0741.9566-2.1254 1.9366z"/><path d="m504.5736 834.5149 2.0338 1.9859q.981-1.0054 1.9856-1.9866l-1.9859-2.0331q-1.0284 1.0044-2.0335 2.0338z"/><path d="m500.6524 838.72 2.1233 1.8888q.9336-1.0492 1.8919-2.0762l-2.0789-1.9387q-.9804 1.0522-1.9363 2.1261z"/><path d="m634.8256 746.21-2.7915.5343q.2654 1.3843.5072 2.7735l2.8-.4885q-.2462-1.4128-.5157-2.8193z"/><path d="m633.6508 740.5988-2.7714.63q.3123 1.374.6009 2.7534l2.7819-.5829q-.2942-1.4029-.6114-2.8005z"/><path d="m636.6006 757.5347-2.8214.3442q.1707 1.3989.3185 2.8l2.8262-.297q-.1498-1.4254-.3233-2.8472z"/><path d="m632.2859 735.0309-2.7485.7231q.3587 1.3624.6943 2.7312l2.76-.6759q-.3407-1.3937-.7058-2.7784z"/><path d="m628.9879 724.0514-2.6924.91q.4518 1.3344.88 2.6771l2.7076-.8646q-.4359-1.3652-.8952-2.7225z"/><path d="m630.7313 729.5131-2.7222.8174q.4049 1.35.7876 2.7062l2.7353-.7716q-.3886-1.3791-.8007-2.752z"/><path d="m634.9758 774.7392q.0282 1.4082.0323 2.8179l2.8422-.0083q-.0042-1.4343-.033-2.8665z"/><path d="m627.0564 718.6536-2.659 1.0034q.4976 1.3176.9721 2.6444l2.6757-.9576q-.483-1.349-.9888-2.6902z"/><path d="m637.1994 763.2357-2.8311.2485q.1235 1.404.2231 2.81l2.8353-.2013q-.102-1.4305-.2273-2.8572z"/><path d="m634.9293 783.1915 2.8409.0888q.0447-1.4333.0648-2.8658l-2.8422-.04q-.0192 1.4091-.0635 2.817z"/><path d="m637.7362 771.8165q-.0537-1.4333-.1305-2.863l-2.838.1526q.0759 1.4073.1283 2.8158z"/><path d="m634.6577 788.82 2.8359.186q.0938-1.43.1628-2.8617l-2.8388-.1374q-.0676 1.4077-.1599 2.8131z"/><path d="m635.8089 751.8572-2.8082.44q.2185 1.3926.4128 2.788l2.8152-.3927q-.1978-1.4187-.4198-2.8353z"/><path d="m648.4971 702.7849-2.7083.8618q.4273 1.3437.8341 2.6937l2.7214-.8188q-.4126-1.3716-.8472-2.7367z"/><path d="m651.6235 713.8074-2.7576.6884q.3414 1.3676.6613 2.7416l2.7679-.6454q-.3251-1.3947-.6716-2.7846z"/><path d="m654.0441 725.0055-2.7957.5121q.254 1.3865.4861 2.7777l2.8033-.4677q-.2352-1.4124-.4937-2.8221z"/><path d="m652.9228 719.387-2.7784.601q.2982 1.378.5739 2.76l2.7873-.5551q-.2799-1.4049-.5828-2.8059z"/><path d="m650.1479 708.2708-2.7347.7758q.3846 1.3561.7477 2.7187l2.7464-.7314q-.3688-1.3854-.7594-2.7631z"/><path d="m646.6725 697.3537-2.6791.9479q.47 1.3291.9187 2.6653l2.6944-.9049q-.4558-1.3572-.934-2.7083z"/><path d="m642.5074 686.68-2.6132 1.1186q.5543 1.2948 1.0873 2.6l2.6313-1.0741q-.5414-1.3275-1.1054-2.6445z"/><path d="m644.6762 691.983-2.648 1.0339q.5127 1.3125 1.0041 2.6347l2.6639-.9909q-.4996-1.3427-1.02-2.6777z"/><path d="m654.0618 761.9944 2.8408.08q.0407-1.4332.058-2.8651l-2.8422-.0347q-.0166 1.4098-.0566 2.8198z"/><path d="m653.8172 767.5 2.8367.1721q.0832-1.3666.1443-2.7339l-2.8394-.1277q-.0605 1.3444-.1416 2.6895z"/><path d="m640.17 681.4483-2.5757 1.2018q.596 1.2771 1.1713 2.5646l2.5945-1.16q-.5854-1.3085-1.1901-2.6064z"/><path d="m654.9861 730.6566-2.81.4233q.2092 1.3926.3966 2.7908l2.8172-.376q-.1899-1.4208-.4038-2.8381z"/><path d="m654.0937 753.5379q.0292 1.4082.0354 2.8186l2.8422-.0125q-.0063-1.4333-.0361-2.8658z"/><path d="m655.7483 736.3355-2.8228.333q.1656 1.4.3078 2.8027l2.8276-.2873q-.1446-1.4259-.3126-2.8484z"/><path d="m656.853 750.6152q-.0531-1.4322-.1291-2.8624l-2.838.1513q.075 1.4073.127 2.8165z"/><path d="m656.3277 742.0358-2.8318.2429q.12 1.4041.2176 2.81l2.8352-.1957q-.0987-1.4298-.221-2.8572z"/><path d="m633.5919 668.7257q-.71-1.2448-1.44-2.4786l-2.4453 1.4488q.7182 1.2126 1.4159 2.437z"/><path d="m636.3813 680.1049 2.5563-1.2421q-.6265-1.2885-1.274-2.5667l-2.5355 1.2837q.6371 1.2583 1.2532 2.5251z"/><path d="m633.8344 675.0762 2.5133-1.3267q-.6683-1.2668-1.3573-2.523l-2.4918 1.3669q.6776 1.2356 1.3358 2.4828z"/><path d="m682.4061 767.4886-2.8408.0861q.0432 1.4156.0763 2.8311l2.8415-.0666q-.0331-1.425-.077-2.8506z"/><path d="m679.6815 787.3986 2.8415.0527q.0265-1.4269.0437-2.8519l-2.8422-.0333q-.0166 1.4156-.043 2.8325z"/><path d="m681.07 744.7122-2.8318.247q.1235 1.41.2356 2.8221l2.8332-.2262q-.1138-1.4218-.237-2.8429z"/><path d="m681.5238 750.4-2.8346.2053q.1026 1.4136.1957 2.8256l2.836-.186q-.0931-1.4226-.1971-2.8449z"/><path d="m681.8982 756.0914-2.8374.1665q.0828 1.4135.1558 2.8283l2.8387-.1471q-.0738-1.4238-.1571-2.8477z"/><path d="m682.192 761.7876-2.8394.1263q.0634 1.4145.1162 2.83l2.84-.1055q-.0528-1.4262-.1168-2.8508z"/><path d="m679.7512 778.9012.0011.9437q0 .945-.0045 1.8887l2.8422.0139q.0046-.95.0045-1.9026l-.0011-.95z"/><path d="m680.5353 739.034-2.8276.2859q.1427 1.4093.2751 2.8186l2.83-.2664q-.134-1.4197-.2775-2.8381z"/><path d="m679.9212 733.3621-2.8234.3261q.1623 1.4063.3147 2.8145l2.8255-.3053q-.153-1.4187-.3168-2.8353z"/><path d="m679.7342 776.0687 2.8422-.0264q-.0129-1.4259-.0367-2.8519l-2.8415.0472q.0228 1.4155.036 2.8311z"/><path d="m680.4566 643.2964q-.5272-1.3426-1.0929-2.668l-2.6139 1.1158q.549 1.2864 1.061 2.59z"/><path d="m686.9567 668.2476-2.7867.5592q.2816 1.4021.5745 2.7985l2.7812-.587q-.2925-1.3833-.569-2.7707z"/><path d="m686.3332 665.1035q-.24-1.2158-.4826-2.4321l-2.7867.5593q.243 1.2116.4809 2.4231l.0714.3608 2.7881-.5509z"/><path d="m676.9625 635.3943-2.5515 1.2518q.6177 1.2594 1.2039 2.5348l2.5827-1.1865q-.6006-1.3084-1.2351-2.6001z"/><path d="m668.3946 620.46-2.3836 1.5488q.7692 1.1833 1.5183 2.3773l2.4071-1.5113q-.7608-1.213-1.5418-2.4148z"/><path d="m674.3076 630.2921-2.4911 1.37q.6781 1.2323 1.3268 2.4779l2.5209-1.3129q-.663-1.2731-1.3566-2.535z"/><path d="m661.9146 611.033-2.3058 1.6612q.827 1.1481 1.6432 2.3031l2.321-1.64q-.823-1.1651-1.6584-2.3243z"/><path d="m658.5409 606.4311-2.28 1.6973q.8457 1.1355 1.6837 2.2773l2.2912-1.682q-.8431-1.149-1.6949-2.2926z"/><path d="m691.7046 692.1856 2.4814-1.385q-.3524-.6318-.6824-1.2712l-2.5258 1.3031q.3513.6818.7268 1.3531z"/><path d="m665.2092 615.7036-2.3405 1.6127q.8015 1.1635 1.5877 2.3356l2.3613-1.5821q-.7962-1.1875-1.6085-2.3662z"/><path d="m671.4391 625.3183-2.4342 1.4669q.727 1.2073 1.4308 2.4258l2.4619-1.4211q-.7166-1.2417-1.4585-2.4716z"/><path d="m680.5385 652.3788q.368 1.2918.697 2.5973l2.7554-.6981q-.3408-1.3458-.72-2.6826l-.0292-.1013-2.7339.7772z"/><path d="m682.4956 660.4593 2.7811-.5871q-.2961-1.4019-.6137-2.7984l-2.7707.6328q.3138 1.3728.6033 2.7527z"/><path d="m679.695 649.6005 2.7048-.8729q-.4434-1.3751-.93-2.7319l-2.6756.959q.4706 1.3136.9008 2.6458z"/><path d="m654.5628 605.86 2.27-1.71q-.8565-1.1378-1.717-2.2712l-2.2642 1.7181q.8568 1.1297 1.7112 2.2631z"/><path d="m649.9779 597.9275h2.8422v2.8413h-2.8422z" transform="matrix(.7943 -.6075 .6075 .7943 -230.1213 518.9688)"/><path d="m686.0327 677.2023 2.7541-.7022q-.346-1.3573-.6575-2.7291l-2.7707.6342q.3214 1.4042.6741 2.7971z"/><path d="m689.7156 688.1943 2.5986-1.15c-.3622-.8188-.7157-1.6792-1.0512-2.5584l-2.6556 1.0117c.3526.9259.7255 1.8324 1.1082 2.6967z"/><path d="m687.6363 682.7569 2.7-.8881c-.281-.8535-.5569-1.75-.82-2.6653l-2.7312.7855c.2729.9499.5594 1.881.8512 2.7679z"/><path d="m702.4517 614.9591 2.5313-1.292q-.6411-1.2554-1.2608-2.521l-2.5521 1.25q.6299 1.287 1.2816 2.563z"/><path d="m711.0075 629.864 2.3925-1.5349q-.7614-1.1866-1.5023-2.3849l-2.4175 1.4946q.7536 1.2189 1.5273 2.4252z"/><path d="m702.5034 608.6037q-.599-1.275-1.1768-2.5612l-2.5924 1.1658q.588 1.3062 1.1969 2.6042z"/><path d="m707.9932 624.99 2.4411-1.4558q-.7214-1.2095-1.4228-2.4321l-2.4654 1.4141q.7139 1.2428 1.4471 2.4738z"/><path d="m705.14 620.02 2.4876-1.3753q-.6811-1.2324-1.3427-2.4779l-2.51 1.3336q.6723 1.2654 1.3651 2.5196z"/><path d="m720.4216 643.1382 2.2392-1.75q-.5917-.7566-1.1745-1.52l-2.2586 1.725q.5923.7759 1.1939 1.545z"/><path d="m717.5072 639.3031 2.2864-1.689q-.8374-1.1324-1.655-2.2808l-2.3148 1.65q.8322 1.1667 1.6834 2.3198z"/><path d="m714.18 634.6366 2.3405-1.6126q-.7994-1.1605-1.58-2.3343l-2.3669 1.5738q.7943 1.1928 1.6064 2.3731z"/><path d="m395.0801 540.0455h2.8421v2.8419h-2.8421z" transform="matrix(.67094575 -.74150644 .74150644 .67094575 -271.0305 472.1804)"/><path d="m402.6827 531.5919h2.8426v2.8423h-2.8426z" transform="matrix(.66503095 -.7468158 .7468158 .66503095 -262.7003 480.3347)"/><path d="m398.89 535.8257h2.8427v2.8422h-2.8427z" transform="matrix(.66787153 -.74427658 .74427658 .66787153 -266.9055 476.3772)"/><path d="m391.253 544.248h2.8423v2.842h-2.8423z" transform="matrix(.67427532 -.73848005 .73848005 .67427532 -275.0621 467.72)"/><path d="m410.5396 523.7912h.9452v2.8421h-.9452z" transform="matrix(.65971315 -.7515175 .7515175 .65971315 -254.8441 487.6052)"/><path d="m406.4584 527.3427h2.8425v2.8425h-2.8425z" transform="matrix(.66205778 -.7494528 .7494528 .66205778 -258.4439 484.3784)"/><path d="m331.8315 605.3803h2.8423v2.842h-2.8423z" transform="matrix(.71788941 -.69615716 .69615716 .71788941 -328.415 403.1814)"/><path d="m281.0945 652.893 1.8722 2.1386q1.07-.9368 2.1389-1.877l-1.8777-2.133q-1.0653.9368-2.1334 1.8714z"/><path d="m268.7907 662.7723h2.8421v2.8424h-2.8421z" transform="matrix(.7602 -.6496 .6496 .7602 -366.7032 334.79)"/><path d="m273.1015 659.0666h2.8422v2.8422h-2.8422z" transform="matrix(.75775521 -.65253892 .65253892 .75775521 -364.4922 339.1362)"/><path d="m276.8146 656.6241 1.8631 2.1469q1.0746-.9336 2.1469-1.8686l-1.8687-2.1414q-1.0699.9336-2.1413 1.8631z"/><path d="m306.279 634.152-1.92-2.095-2.095 1.916 1.915 2.099z"/><path d="m322.9368 618.6423-1.9543-2.0637q-1.0305.9763-2.0633 1.9485l1.9491 2.0692q1.0352-.9763 2.0685-1.954z"/><path d="m314.64 626.431-1.937-2.08-2.08 1.932 1.932 2.085z"/><path d="m310.4675 630.3-1.93-2.0872q-1.0419.9639-2.0866 1.9235l1.9235 2.0928q1.0479-.9635 2.0931-1.9291z"/><path d="m318.7964 622.5441-1.9464-2.0706q-1.0341.9711-2.071 1.94l1.94 2.0762q1.04-.971 2.0774-1.9456z"/><path d="m379.0824 558.2483 2.072 1.9457q.9736-1.0367 1.9457-2.0768l-2.0768-1.94q-.9691 1.0377-1.9409 2.0711z"/><path d="m375.7737 560.9025h2.8426v2.8421h-2.8426z" transform="matrix(.68717501 -.72649192 .72649192 .68717501 -290.5274 449.9376)"/><path d="m371.8617 565.0269h2.8422v2.8425h-2.8422z" transform="matrix(.69031312 -.72351075 .72351075 .69031312 -294.2305 445.4956)"/><path d="m294.4269 640.2782h2.8422v2.8425h-2.8422z" transform="matrix(.74416816 -.66799233 .66799233 .74416816 -352.9632 361.7919)"/><path d="m302.075 637.987-1.912-2.104-2.102 1.907 1.906 2.108z"/><path d="m290.1925 644.0709h2.8419v2.8421h-2.8419z" transform="matrix(.74704557 -.66477283 .66477283 .74704557 -355.3406 357.1368)"/><path d="m285.9427 647.8463h2.842v2.8423h-2.842z" transform="matrix(.7494528 -.66205778 .66205778 .7494528 -357.8543 352.9233)"/><path d="m351.4726 590.8545-2.0123-2.0067q-1.0027 1.0044-2.0074 2.0067l2.0074 2.0123q1.0071-1.0044 2.0123-2.0123z"/><path d="m356.0471 581.3633h2.8424v2.8424h-2.8424z" transform="matrix(.70060795 -.71354643 .71354643 .70060795 -308.8206 429.5511)"/><path d="m355.484 586.8181-2.0206-1.9984q-.9987 1.0086-1.9991 2.0151l2.0158 2.0039q1.0028-1.0087 2.0039-2.0206z"/><path d="m363.458 578.7-2.036-1.984-1.983 2.032 2.031 1.987z"/><path d="m387.4088 548.4356h2.8425v2.8428h-2.8425z" transform="matrix(.67708278 -.73590686 .73590686 .67708278 -279.0836 463.7009)"/><path d="m383.5472 552.6069h2.8421v2.8423h-2.8421z" transform="matrix(.68012357 -.73309749 .73309749 .68012357 -283.0143 459.44)"/><path d="m363.9877 573.2272h2.8423v2.842h-2.8423z" transform="matrix(.69491696 -.71909 .71909 .69491696 -301.7438 438.0773)"/><path d="m323.6304 613.2538h2.8422v2.8422h-2.8422z" transform="matrix(.72363242 -.69018557 .69018557 .72363242 -334.406 394.2219)"/><path d="m339.9684 597.4399h2.8425v2.8422h-2.8425z" transform="matrix(.71185078 -.70233074 .70233074 .71185078 -322.2273 412.3295)"/><path d="m367.9331 569.1352h2.8425v2.8422h-2.8425z" transform="matrix(.69330373 -.7206455 .7206455 .69330373 -297.8892 441.1609)"/><path d="m327.7391 609.325h2.8422v2.8422h-2.8422z" transform="matrix(.7207677 -.69317668 .69317668 .7207677 -331.4429 398.7065)"/><path d="m347.4446 594.8743-2.0047-2.0151q-1.0061 1.0013-2.0151 1.9984l1.9988 2.0206q1.0117-1.0002 2.021-2.0039z"/><path d="m335.9079 601.418h2.8424v2.8424h-2.8424z" transform="matrix(.71535866 -.69875746 .69875746 .71535866 -325.2204 407.3037)"/><path d="m428.6318 493.7631.28.1673q.3153-.5288.6217-1.0617l4.0635-7.0826-6.2173 5.2937c-.4382.3727-.8688.764-1.28 1.1637l1.98 2.0387q.2703-.2622.5521-.5191z"/><path d="m424.8491 498.1506.8739.6294c.561-.7792 1.1148-1.5835 1.6456-2.3912l-2.3752-1.5612c-.0545.0825-.109.1658-.1641.2484l-.7616-.628a27.2251 27.2251 0 0 0 -1.7753 2.4155l2.3794 1.5543c.0582-.0895.1176-.1778.1773-.2672z"/><path d="m422.1359 503.3417c.63-.7349 1.2494-1.4891 1.842-2.2427l-2.2337-1.7569c-.112.1422-.2251.2852-.3393.4274l-.6113-.3088a26.8627 26.8627 0 0 0 -1.2008 2.7492l2.157.8008z"/><path d="m899.5055 967.5577c-3.0386-4.1613-7.9462-6.6648-12.5575-8.6931a130.3841 130.3841 0 0 0 -17.3422-6.0244c-2.2211-.6224-4.4548-1.2005-6.694-1.7542-4.9135-15.7494-8.5-31.88-11.7858-48.0364-3.4948-17.1822-6.64-34.4367-10.4411-51.5558-3.7189-16.7465-8.0475-33.418-14.1173-49.4831-6.2995-16.673-14.8688-32.27-24.5133-47.23a408.7772 408.7772 0 0 0 -33.0728-44.0145q-1.8684-2.1848-3.7655-4.3452a43.7513 43.7513 0 0 0 -1.25-15.5794c-2.4679-8.3288-8.6522-14.6176-14.82-20.413-5.8693-5.5144-12.4128-11.1211-15.2876-18.7193l25.6485 10.5646c2.0758.8549 3.4365-2.1594 2.0737-3.5631a220.73 220.73 0 0 1 -49.6084-80.9042c.4125-.1513.8261-.2977 1.2372-.4552 5.8808-2.2517 12.09-4.987 16.0925-10.0594 4.5267-5.7372 3.6121-12.4464 2.071-19.1141-9.1789-39.625-12.4277-80.322-12.7969-120.9205-.3691-40.6318 2.054-81.215 4-121.783 1.9741-41.1467 3.0365-82.2739 1.4915-123.4567-.647-17.253-1.7188-34.49-2.9608-51.71-1.002-13.8967-2.37-27.8287-5.3111-41.4666-5.751-26.6685-19.57-54.9524-48.3167-62.1419-15.1356-3.7859-31.1053-.893-45.2268 5.1918-14.7105 6.339-27.0421 16.4156-38.0927 27.859-21.2732 22.0278-36.4365 48.88-47.6908 77.1918-11.4927 28.9119-19.1252 59.1561-26.9735 89.2039-8.1419 31.174-16.3871 62.6491-29.7286 92.0842-14.4379 31.8533-35.1927 61.4855-62.4219 83.6846a173.9447 173.9447 0 0 1 -20.7163 14.4865 2.1576 2.1576 0 0 0 -.9794 2.4071 253.62 253.62 0 0 0 20.0692 42.0529 563.9 563.9 0 0 1 -51.7415 68.4682c-30.1869 34.0065-64.6723 63.54-99.5 92.6289-19.9887 16.6952-39.9664 33.4077-59.2347 50.9362a2.1468 2.1468 0 0 0 2.0739 3.5625c12.112-3.761 30.8359-8.48 40.99 2.0511a17.5372 17.5372 0 0 1 4.4319 8.25 541.8941 541.8941 0 0 0 -37.7668 43.8328 334.3025 334.3025 0 0 0 -32.6366 51.0793c-8.4246 16.5848-14.22 34.39-18.8542 52.3635-4.8382 18.7657-8.4341 37.8208-12.1741 56.8274-3.6348 18.4715-7.3523 36.9735-12.6431 55.0565-.5053 1.7271-1.0374 3.4466-1.5738 5.1647a168.4831 168.4831 0 0 0 -19.0328 5.7426c-6.2069 2.3392-13.5019 5.1834-17.5615 10.7332a2.14 2.14 0 0 0 1.274 3.1316 417.9353 417.9353 0 0 0 77.4858 3.924q11.0877-.48 22.1376-1.5557a2.216 2.216 0 0 0 2.1316-2.1317c2.7033-22.81 5.7944-45.5876 9.8489-68.2a525.6041 525.6041 0 0 1 12.0207-53.0234 281.5991 281.5991 0 0 1 15.1137-41.1446 214.1421 214.1421 0 0 1 19.7015-33.8323 251.5922 251.5922 0 0 1 24.8424-29.3359c.8448-.866 1.7-1.7222 2.5535-2.5792a11.8682 11.8682 0 0 1 5.2611 5.8766 24.54 24.54 0 0 1 .1955 18.9205c-6.9 16.981-25.5388 27.77-43.5743 26.6179-2.2494-.1444-2.7094 2.8838-1.0758 3.9718a92.5975 92.5975 0 0 0 78.03 10.9872c13.7094-4.3 25.2788-12.5353 37.3968-19.9662.0326-.0194.0654-.0395.098-.06-.3752.8306-.7482 1.6626-1.1118 2.4981-6.9924 16.0685-11.9534 32.924-16.0418 49.94-4.2324 17.6146-7.55 35.43-11.0708 53.1962-3.4245 17.28-7.0024 34.5685-11.9728 51.4822-.4726 1.6071-.9691 3.2079-1.4683 4.8074a168.3784 168.3784 0 0 0 -19.052 5.75c-6.2086 2.3412-13.482 5.1785-17.5434 10.7262a2.14 2.14 0 0 0 1.274 3.1316 418.0524 418.0524 0 0 0 77.7374 3.9129q10.9615-.48 21.886-1.5446a2.2159 2.2159 0 0 0 2.1316-2.1317c2.819-23.7833 6.055-47.5347 10.3741-71.0966a500.2537 500.2537 0 0 1 12.7178-54.2718 267.557 267.557 0 0 1 16.385-42.1694c.6-1.2046 1.22-2.3981 1.8422-3.5909a1.59 1.59 0 0 0 .2488-.4844 213.3424 213.3424 0 0 1 19.19-30.1075 278.267 278.267 0 0 1 27.4752-30.5078c.3084-.3.6221-.5954.9315-.8944a32.7 32.7 0 0 1 -.5912 10.9212c-3.2245 14.1555-13.7159 25.323-18.7251 38.7895-5.4294 14.5961-4.37 30.5585-.1329 45.3073 4.9711 17.3044 13.8 33.2723 22.9017 48.6942.866 1.4669 3.5642 1.3635 3.8963-.5094a93.2387 93.2387 0 0 1 9.5945-27.778 117.8906 117.8906 0 0 0 43.7286 56.5685c1.62 1.1179 3.5222-.7223 3.1312-2.4071a134.4915 134.4915 0 0 1 .75-63.6109 116.0555 116.0555 0 0 0 41.2431 50.0445 2.1453 2.1453 0 0 0 3.1312-1.274c2.4575-10.8053-1.1543-21.8092.968-32.59 1.34-6.8023 4.97-12.8 9.4679-17.9851.543-.6266 1.0984-1.24 1.66-1.8472 4.2213 13.2035 7.6325 26.6588 10.5479 40.2072 3.8768 18.0184 6.91 36.2116 9.5387 54.4507 1.733 12.0252 3.2762 24.0768 4.7053 36.1416a2.2152 2.2152 0 0 0 2.1317 2.1317q19.37 1.8786 38.8561 1.9408 19.3711.0542 38.6913-1.7028 11.0709-1.0086 22.0767-2.6063a2.14 2.14 0 0 0 1.2736-3.1316c-3.0563-4.2175-8.0756-6.7356-12.7354-8.7708a131.6712 131.6712 0 0 0 -17.2607-5.9738c-2.191-.6134-4.3937-1.1824-6.6024-1.7285-3.2606-10.448-5.9311-21.0708-8.3216-31.7485-2.5774-11.5131-4.8382-23.0936-7.1082-34.67-2.0675-10.5452-4.1509-21.0883-6.4564-31.5848a58.1667 58.1667 0 0 0 9.9092 6.4532 2.1555 2.1555 0 0 0 3.2075-1.8409 166.9543 166.9543 0 0 1 6.3284-46.3349 90.6046 90.6046 0 0 0 60.36 22.9714 2.1537 2.1537 0 0 0 1.84-3.2072 460.8523 460.8523 0 0 1 -36.1135-86.9362c.2544.2581.5132.5121.7668.7709 5.0075 5.1147 9.8523 10.39 14.4605 15.8681a215.1633 215.1633 0 0 1 23.5272 34.039 244.3047 244.3047 0 0 1 17.9172 41.3842 439.4816 439.4816 0 0 1 13.8183 53.854c4.6321 23.3878 8.0526 47.0073 10.9941 70.6616q.6312 5.0782 1.2323 10.16a2.2152 2.2152 0 0 0 2.1317 2.1317 414.8693 414.8693 0 0 0 77.7386.22q10.9752-1.0044 21.8848-2.5882a2.14 2.14 0 0 0 1.274-3.1314zm-719.7407-121.2209-2.362 1.5807c-.54-.807-1.0644-1.6355-1.5588-2.4633l2.44-1.4572c.4698.7862.9677 1.573 1.4808 2.3398zm-4.0655-7.2318c.3858.8327.799 1.6674 1.2285 2.4786l-2.5126 1.3295c-.4527-.8563-.8885-1.7354-1.2951-2.6146zm-10.7578 36.2755c.6418.6453 1.3156 1.2879 2.0025 1.91l-1.9075 2.1067c-.7237-.655-1.4339-1.3323-2.1108-2.013zm-5.9006-2.3516 2.2212-1.7736c.5683.7119 1.1685 1.4225 1.7836 2.1122l-2.1212 1.8916c-.6491-.7279-1.283-1.478-1.8836-2.2302zm2.8877 35.0792a11.2773 11.2773 0 0 1 -1.5814-2.8269l2.6555-1.0131a8.4455 8.4455 0 0 0 1.1845 2.115zm4.9707 3.8984a13.77 13.77 0 0 1 -2.709-1.6328l1.741-2.2468a10.8907 10.8907 0 0 0 2.149 1.2941zm.3528-30.7112 1.7917-2.2066c.7143.58 1.452 1.1477 2.193 1.6869l-1.6716 2.2982c-.782-.5683-1.5602-1.1672-2.3131-1.7785zm2.6278 31.7034.603-2.7769a11.5954 11.5954 0 0 0 2.455.2664l.0642 2.8422a14.5818 14.5818 0 0 1 -3.1221-.3317zm2.088-28.2714 1.5487-2.3828c.7734.5023 1.5669.9888 2.3586 1.4454l-1.42 2.4619c-.8352-.4818-1.672-.9944-2.4873-1.5245zm4.1949 28.2118-.6932-2.7562a9.0044 9.0044 0 0 0 2.2732-.9069l1.4093 2.4689a11.8666 11.8666 0 0 1 -2.9893 1.1942zm3.492-24.0442c-.8875-.3935-1.7746-.8147-2.6361-1.2532l1.2886-2.5327c.8164.4149 1.657.8146 2.498 1.1865zm-.5686-38.598 2.2781-1.7c.5447.73 1.1209 1.4634 1.7128 2.1788l-2.19 1.8111c-.622-.7516-1.2277-1.5225-1.8009-2.2899zm5.6244 40.54c-.7914-.2589-1.5842-.5392-2.3568-.832l1.01-2.6576c.7306.2782 1.4811.5426 2.23.7875zm.1169-33.9566c-.6863-.6758-1.3673-1.3808-2.0245-2.0969l2.0942-1.9221c.6245.6807 1.2719 1.3517 1.9239 1.9929zm4.3532 3.87c-.7578-.6078-1.5065-1.2407-2.2257-1.88l1.8881-2.1247c.6838.6079 1.3961 1.21 2.1167 1.7882zm4.7306 3.407c-.8157-.5252-1.6262-1.0776-2.4092-1.6417l1.6612-2.3065c.7435.5357 1.5134 1.06 2.2877 1.56zm3.17 1.8965q-.34-.1894-.6787-.3824l1.4135-2.4661q.3231.1852.6481.3657zm514.8477-756.0855q1.0548.0624 2.1115.0874l-.0652 2.8408q-1.1085-.0249-2.2157-.0916zm.7917 11.1023-1.0436 2.6438a25.8831 25.8831 0 0 0 -2.5525-.8563l.7619-2.7381a28.6081 28.6081 0 0 1 2.8342.9506zm-3.8626-8.5092c-.961-.1048-1.9321-.2346-2.8856-.3858l.4455-2.8075c.908.1443 1.8326.2678 2.7482.3677zm-3.0441-16.16 2.8224.3442-.3455 2.8214-2.82-.3442zm-1.8166 22.7265a28.3482 28.3482 0 0 1 2.9712.3414l-.4725 2.8027a25.46 25.46 0 0 0 -2.6736-.3074zm-3.8258-23.4155 2.8224.3442-.3456 2.8213-2.82-.3441zm3.5187 13.1549-.5803 2.7827c-.9527-.1991-1.9065-.4226-2.8345-.6641l.7161-2.7506c.8831.2307 1.7911.443 2.6984.6325zm-83.4834-7.1263.35.7362q1.1532-.8733 2.2815-1.7722l-.0968-.195c.3008-.1492.5988-.3046.8986-.4559 1.6744-1.3593 3.3071-2.7659 4.8684-4.264a83.7358 83.7358 0 0 0 12.9172-15.943 84.6049 84.6049 0 0 0 12.4712-36.2264 82.1448 82.1448 0 0 0 10.3127 13.24c.0323.034.0645.0687.0968.1034q.4678.49.9437.9736.3237.3309.6512.66.3254.3257.6533.6487.597.5871 1.2036 1.163c.0666.0639.1322.1277.1991.1908.1041.0986.2065.1992.3109.297.1589.1492.3247.29.4847.4386q.8347.7711 1.6848 1.5231t1.7149 1.4849c.2866.2429.5711.4892.86.7286.0537.0451.1089.0874.1627.1318q3.3641 2.7916 6.9157 5.3437 2.9929 2.1472 6.1066 4.1183c.687.4358 1.4142.8577 2.122 1.31.1072.0694.214.1408.3212.2116.15.0993.2991.1992.4459.3019.1016.0707.1988.1471.2987.2206a9.8566 9.8566 0 0 1 1.3854 1.231 6.2428 6.2428 0 0 1 .4364.5156c.0205.027.0382.0562.058.0839a11.9539 11.9539 0 0 1 1.5848 3.8581c.9146 3.432 1.6841 6.91 2.4464 10.3786a361.9056 361.9056 0 0 1 6.7186 42.3624q1.0518 10.7352 1.4718 21.5191.2107 5.4321.26 10.8685a46.2485 46.2485 0 0 1 -.4295 8.6612 12.9676 12.9676 0 0 1 -3.3391 7.0861 12.0813 12.0813 0 0 1 -5.9411 3.1142c-4.8972 1.1921-10.44.4809-15.562-.2165-11.29-1.537-23.7195-3.4986-32.4751-11.4486-.0239-.0222-.0486-.0437-.0725-.0652-.468-.4275-.9156-.8723-1.3548-1.324q-.2655-.2748-.5236-.5558c-.205-.22-.4031-.4462-.6019-.6717a53.6748 53.6748 0 0 1 -8.4673-14.1249c-3.1354-7.2062-5.6424-14.7335-8.0551-22.2061q-3.8772-12.0114-6.9181-24.27a48.1759 48.1759 0 0 1 -1.33-5.717 4.6905 4.6905 0 0 1 -.0313-.6752l-.9943-2.183q1.2826-.5842 2.5557-1.1895zm30.5974 389.31.3515-2.8207 2.8207.3511-.3515 2.8207zm2.47 3.1711-.3515 2.8207-2.8207-.3511.3515-2.8207zm-1.7667-8.8118.3518-2.8207 2.82.3511-.3511 2.8207zm.7022-5.64.3515-2.8207 2.82.3511-.3511 2.8207zm.7026-5.6414.3518-2.8207 2.82.3512-.3511 2.8206zm.7026-5.6407.3518-2.8206 2.82.3511-.3511 2.8207zm.7026-5.6406.3518-2.8207 2.82.3511-.3512 2.8207zm.7029-5.6407.3514-2.8207 2.8207.3511-.3514 2.8207zm.7029-5.6421.3514-2.8207 2.8207.3511-.3514 2.8207zm.7026-5.6407.3514-2.8207 2.82.3511-.3511 2.8207zm.7025-5.6407.3515-2.8207 2.82.3512-.3511 2.8206zm.7029-5.6406.3519-2.8207 2.82.3511-.3515 2.8207zm.7023-5.6407.3518-2.8207 2.82.3511-.3511 2.8207zm.7025-5.6407.3518-2.8207 2.82.3511-.3511 2.8207zm.7026-5.6407.3512-2.8207 2.82.3511-.3511 2.8207zm.7026-5.6407.3518-2.8207 2.82.3511-.3514 2.8207zm.7029-5.6414.3515-2.8207 2.8206.3512-.3514 2.8206zm.7026-5.6406.3514-2.8207 2.8207.3511-.3514 2.8207zm.7025-5.6407.3515-2.8207 2.8207.3511-.3515 2.8207zm.7026-5.6407.3515-2.8207 2.82.3511-.3511 2.8207zm.7026-5.6414.3514-2.8207 2.82.3511-.3511 2.8207zm.7029-5.6407.3518-2.8207 2.82.3511-.3511 2.8207zm.7026-5.6407.3518-2.8207 2.82.3512-.3514 2.8206zm.7025-5.6406.3518-2.8207 2.82.3511-.3515 2.8207zm.7023-5.64.3518-2.8207 2.82.3511-.3512 2.8207zm.7029-5.6414.3514-2.8207 2.8207.3511-.3514 2.8207zm.7025-5.6407.3515-2.8207 2.8207.3511-.3515 2.8207zm.7026-5.6407.3515-2.8207 2.8207.3511-.3515 2.8207zm.7026-5.6407.3514-2.8207 2.8207.3512-.3514 2.8206zm.7026-5.6413.3514-2.8207 2.8207.3511-.3515 2.8207zm.7029-5.6407.3518-2.8207 2.82.3511-.3511 2.8207zm.7025-5.6407.3519-2.8207 2.82.3511-.3511 2.8207zm.7026-5.6407.3518-2.8207 2.82.3511-.3515 2.8207zm.7026-5.6407.3518-2.8207 2.82.3511-.3514 2.8207zm.7029-5.6414.3515-2.8207 2.8207.3512-.3515 2.8206zm.7026-5.6407.3514-2.8206 2.8207.3511-.3514 2.8207zm.7025-5.6406.3515-2.8207 2.8207.3511-.3515 2.8207zm.7026-5.6407.3515-2.8207 2.82.3511-.3511 2.8207zm.7026-5.6407.3514-2.8207 2.82.3511-.3511 2.8207zm.7029-5.6414.3518-2.8207 2.82.3511-.3514 2.8207zm.7026-5.6407.3518-2.8207 2.82.3512-.3514 2.8206zm.7025-5.6407.3515-2.8206 2.8207.3511-.3521 2.8208zm-55.0277 132.5213q3.49-17.6195 6.6353-35.3048t5.946-35.4275q2.8-17.7423 5.2539-35.5366 2.4387-17.6869 4.5256-35.4206a2.1828 2.1828 0 0 1 2.1316-2.1317 2.1444 2.1444 0 0 1 2.1317 2.1317q-.2617 2.2191-.5284 4.4368-2.17 18.0283-4.6908 36.0118-2.5036 17.8766-5.3579 35.7017-2.84 17.736-6.0251 35.4137-3.2006 17.7651-6.7492 35.465t-7.4431 35.3263a2.1542 2.1542 0 0 1 -2.6222 1.4884 2.18 2.18 0 0 1 -1.4887-2.6222q.4818-2.1805.9586-4.3639 3.8328-17.5474 7.3227-35.1681zm22.5436 132.757v-2.842h2.8422v2.8422zm2.8422 2.8415v1.6674h-2.8422v-1.6674zm-2.8422-8.5266v-2.8419h2.8422v2.8422zm-33.63-64.803.4885-2.8 2.8.4885-.4885 2.8zm2.312 3.2883-.1651.9472-2.8-.49.1652-.9458zm-.0308-359.421 1.1338 2.6063q-1.3146.5724-2.6386 1.1213l-1.0887-2.6257q1.3011-.5389 2.5935-1.1017zm-.6606 14.6884 1.3031 2.5258a15.095 15.095 0 0 1 -2.8182 1.0943l-.7793-2.7326a12.3668 12.3668 0 0 0 2.2944-.8873zm-4.545-12.5283 1.045 2.6438q-1.3323.5266-2.6736 1.0318l-1.0013-2.66q1.3193-.4967 2.6299-1.0154zm-2.25 14.279c.6252-.093 1.2528-.1866 1.877-.2921l.4753 2.8019c-.6436.109-1.29.2054-1.9349.3012l-.8889.1339-.4469-2.8075zm1.3786 15.5497q-1.365.3467-2.7235.7182l-.7494-2.7422q1.3833-.3779 2.7735-.7307zm-4.4034-27.8425.9554 2.677q-1.3494.4819-2.7065.9416l-.9118-2.6923q1.3353-.4516 2.6627-.9263zm-.7279 12.9071.51 2.7964q-1.3776.251-2.7475.5427l-.5912-2.78q1.41-.2995 2.8285-.5587zm-.3005 16.42q-1.3515.3966-2.6948.8188l-.8514-2.7118q1.3683-.43 2.7447-.834zm-4.3115-27.52.866 2.7075q-1.3651.4362-2.7371.85l-.82-2.7215q1.3486-.4063 2.6909-.8356zm-10.8867 151.281q.3658-1.3667.72-2.736l2.752.7105q-.3565 1.3822-.7265 2.761zm1.9915 3.49-.1922.6863-2.736-.7689.1908-.6807zm-.5794-8.9686q.34-1.373.6658-2.7485l2.7659.655q-.33 1.3905-.6728 2.7763zm1.3049-5.5026q.3121-1.38.612-2.7624l2.7777.6023q-.3024 1.3947-.6176 2.7874zm1.1966-5.53q.2858-1.3833.5582-2.7721l2.7888.5468q-.2748 1.402-.5631 2.8zm1.0887-5.55q.2587-1.3905.5035-2.7839l2.7991.4927q-.2472 1.4061-.5083 2.81zm.98-5.5713q.2316-1.3947.4493-2.7922l2.8082.4372q-.22 1.4113-.4535 2.82zm.2293-96.2011q1.3516-.48 2.7118-.9347l.9014 2.6951q-1.335.4466-2.6618.9181zm.6419 90.6118q.204-1.3989.3945-2.8006l2.8165.3831q-.1926 1.4145-.3986 2.8283zm.7612-5.6053q.1764-1.4041.34-2.8082l2.8234.3275q-.165 1.4187-.3431 2.836zm.6519-5.6185q.1488-1.4061.2845-2.8137l2.829.272q-.1363 1.4208-.2872 2.8415zm1.5929-94.5371.67 2.7617q-1.362.3309-2.7142.6987l-.7473-2.7422q1.3905-.3788 2.7912-.7181zm-4.3695-10.6707.7744 2.7347q-1.3785.3913-2.7638.7584l-.7286-2.7478q1.362-.3612 2.718-.7453zm-1.1914 12.1862.8244 2.72q-1.3407.4059-2.67.8507l-.9013-2.6951q1.3676-.4568 2.7469-.8756zm-.7813 14.6191 1.0013 2.66q-1.3178.4955-2.6257 1.0165l-1.0513-2.641q1.3329-.5303 2.6757-1.0355zm-3.4747-25.3613.6828 2.759q-1.3922.3445-2.7891.6647l-.6349-2.77q1.3734-.3154 2.7412-.6537zm-1.2112 12.5707.9784 2.6687q-1.3157.482-2.617 1.0013l-1.0534-2.64q1.3386-.5336 2.692-1.03zm-.6443 14.91 1.0992 2.6216q-1.2985.5443-2.5858 1.113l-1.1491-2.5994q1.3125-.5804 2.6357-1.1348zm-3.6384-26.22.5891 2.7812q-1.4025.2966-2.81.57l-.5412-2.7909q1.3834-.2676 2.7621-.5602zm-1.0711 13.4464 1.1283 2.609q-1.2864.5559-2.5559 1.1484l-1.2012-2.5757q1.3058-.6087 2.6288-1.1816zm-4.461-12.3729.4933 2.7992q-1.4118.2487-2.8272.4739l-.4455-2.8075q1.3916-.221 2.7794-.4655zm-4.0614 95.5378 2.7957.5121q-.2565 1.4008-.519 2.8012l-2.7936-.5246q.2617-1.3946.5169-2.7886zm-1.044 5.5761 2.7916.5343q-.2675 1.3979-.5406 2.7964l-2.7894-.5454q.2721-1.3914.5384-2.7852zm-1.0873 5.5685 2.7874.5551q-.2784 1.397-.5617 2.7909l-2.7853-.5648q.282-1.3905.5596-2.7811zm-1.13 5.56 2.7832.576q-.2887 1.3947-.5835 2.788l-2.78-.5884q.2924-1.3872.5803-2.7753zm-1.173 5.5505 2.7783.5981q-.3 1.3928-.6044 2.7819l-2.7762-.6079q.3033-1.3851.6023-2.7718zm-1.2161 5.5421 2.7742.619q-.3107 1.39-.6262 2.7777l-2.7715-.63q.3144-1.382.6235-2.7664zm-1.2577 5.5311 2.7687.6412q-.3211 1.3873-.6474 2.7728l-2.7666-.6523q.3252-1.3788.6453-2.7614zm-1.301 5.5227 2.7638.662q-.3315 1.3854-.6686 2.7679l-2.7617-.673q.3357-1.3768.6665-2.7566zm-1.3438 5.5116 2.759.6842q-.3431 1.3812-.6905 2.7624l-2.7561-.6939q.3466-1.3756.6876-2.7524zm-1.386 5.5019 2.7534.705q-.3529 1.3792-.7116 2.7576l-2.7506-.7161q.3575-1.3716.7088-2.7462zm-19.2463-17.3936 2.8.4885q-.2457 1.4052-.5 2.8082l-2.7964-.5079q.2525-1.3936.4964-2.7888zm-1.0131 5.5734 2.793.5274q-.2649 1.4021-.5385 2.8l-2.7895-.5455q.2723-1.3894.535-2.7819zm-1.0887 5.56 2.7853.5648q-.2836 1.3979-.5759 2.7923l-2.7819-.5829q.2904-1.3863.5725-2.774zm-1.1637 5.5435 2.7777.6024q-.3024 1.3937-.6141 2.7853l-2.7735-.6218q.3096-1.382.6099-2.7657zm-1.2379 5.5283 2.7694.64q-.3211 1.3894-.6516 2.7763l-2.7652-.6578q.3285-1.3792.6474-2.7578zm-1.3132 5.5116 2.76.6773q-.34 1.3844-.6887 2.7672l-2.7562-.6952q.3471-1.3738.6849-2.7491zm-1.3871 5.4929 2.7513.7134q-.3585 1.3812-.7265 2.7589l-2.7457-.7328q.3652-1.3695.7209-2.7393zm-1.4606 5.4728 2.7409.7508q-.3768 1.376-.7637 2.7478l-2.7353-.77q.3836-1.3624.7581-2.7284zm-1.5346 5.4533 2.7312.7883q-.3955 1.37-.8 2.7374l-2.7249-.8077q.4013-1.3559.7937-2.7179zm-1.6074 5.4325 2.72.8244q-.4137 1.3646-.8365 2.7263l-2.7145-.8424q.4206-1.3529.831-2.7081zm-1.68 5.4117 2.709.8605q-.4319 1.3593-.8732 2.7152l-2.7028-.88q.438-1.3455.8667-2.6955zm-1.7527 5.3859 2.6965.8979q-.45 1.3519-.9094 2.7027l-2.6909-.916q.4565-1.3401.9038-2.6846zm-1.8253 5.3631 2.6847.934q-.4683 1.3468-.9458 2.69l-2.6784-.952q.4738-1.3328.9395-2.6716zm-1.8967 5.3388 2.6715.97q-.4866 1.34-.9819 2.677l-2.6653-.9881q.4923-1.3276.9757-2.6585zm-1.969 5.3118 2.6583 1.0062q-.5043 1.3332-1.0179 2.6631l-2.6514-1.0228q.5095-1.3214 1.011-2.6461zm-2.04 5.2854 2.6445 1.0409q-.522 1.327-1.0537 2.65l-2.6375-1.0588q.5285-1.3143 1.0467-2.6312zm-2.1112 5.2577 2.6306 1.0755q-.54 1.3209-1.0894 2.6368l-2.623-1.095q.5459-1.3058 1.0821-2.6169zm-2.18 5.2278 2.6153 1.1116q-.5574 1.3115-1.1242 2.6209l-2.6083-1.13q.5629-1.2994 1.117-2.6021zm-2.2524 5.1987 2.6007 1.1477q-.5755 1.3041-1.16 2.6042l-2.5924-1.1644q.58-1.2908 1.1515-2.5871zm-2.3218 5.1674 2.5848 1.1824q-.5934 1.2969-1.1953 2.59l-2.5764-1.2q.5977-1.2838 1.1867-2.572zm-2.3915 5.1348 2.5688 1.2171q-.61 1.2887-1.23 2.573l-2.56-1.2351q.6149-1.2747 1.221-2.5546zm-140.95 520.217 1.1019-2.62a9.054 9.054 0 0 1 2.7552 1.8847l-1.96 2.0581a6.34 6.34 0 0 0 -1.8975-1.3224zm5.8524-19.0828a16.34 16.34 0 0 0 1.7652 1.9276l-1.9241 2.0914a19.1075 19.1075 0 0 1 -2.072-2.2579zm-.5045-20.9016 1.6973-2.28c.7372.5488 1.5 1.0935 2.2666 1.6181l-1.605 2.3454c-.7984-.5458-1.5919-1.1116-2.3593-1.6831zm-3.4462 20.2361c-.5246-.8105-1.0249-1.6369-1.519-2.4571l2.4349-1.4669c.4781.7938.9617 1.5953 1.47 2.3794zm4.2227 25.2051a9.8284 9.8284 0 0 1 -1.3514-1.0915c-.3435-.3317-.6748-.6828-1.0009-1.0395l2.0976-1.9179c.2866.3137.5763.6217.8778.9132a7.018 7.018 0 0 0 .96.7751zm3.5028-21.13a8.764 8.764 0 0 0 2.2759.8736l-.637 2.77a11.588 11.588 0 0 1 -3.0143-1.1567zm.5034-21.0369 1.5113-2.4078c.7858.4933 1.589.9756 2.3877 1.4336l-1.4142 2.4661c-.8313-.4768-1.6675-.9792-2.4852-1.492zm2.7547 42.7a4.6723 4.6723 0 0 1 -2.7235.8348h-.0163a5.6477 5.6477 0 0 1 -.8368-.0653l.4274-2.81a1.1957 1.1957 0 0 0 .4212.0333 1.8611 1.8611 0 0 0 1.1033-.3248l.0794-.0583 1.741 2.2469q-.0961.0738-.1961.1436zm2.1168-3.3335-2.761-.673a11.8524 11.8524 0 0 0 .2494-2.51l2.8415.0486a14.3465 14.3465 0 0 1 -.3303 3.1346zm-.45-14.4635-.2893-2.827a5.2325 5.2325 0 0 0 2.1181-.6647l1.4315 2.455a8.0362 8.0362 0 0 1 -3.2604 1.0369zm3.2-20.7288c-.87-.4115-1.7434-.8459-2.5945-1.2907l1.3156-2.5188c.8181.4267 1.6574.8445 2.4946 1.2407zm5.3333 2.27c-.8917-.3372-1.7972-.7008-2.6906-1.0818l1.1137-2.6146c.858.365 1.7268.7148 2.583 1.0388zm235.8629 26.3944-2.548-1.26a20.6529 20.6529 0 0 1 1.5519-2.625l2.3336 1.6224a17.6755 17.6755 0 0 0 -1.3375 2.2626zm2.9948-4.3168-2.0817-1.9346a22.7523 22.7523 0 0 1 2.208-2.0754l1.8048 2.1955a19.8974 19.8974 0 0 0 -1.9311 1.8145zm6.3516 30.2782-2.6493-1.0284a24.6484 24.6484 0 0 1 1.2626-2.7381l2.5035 1.3462a21.8717 21.8717 0 0 0 -1.1168 2.4203zm-3.7692-36.0524a24.2034 24.2034 0 0 1 2.6558-1.435l1.1922 2.58a21.2315 21.2315 0 0 0 -2.3416 1.2657zm6.2891 31.3551-2.3287-1.6293a26.5652 26.5652 0 0 1 1.8586-2.3571l2.13 1.8818a23.8867 23.8867 0 0 0 -1.6599 2.1049zm-.8164-33.8816a23.4782 23.4782 0 0 1 2.9359-.7237l.5 2.7978a20.5715 20.5715 0 0 0 -2.5792.6363zm4.3622 29.87-1.9089-2.1053a27.3349 27.3349 0 0 1 2.3266-1.8881l1.6675 2.301a24.7248 24.7248 0 0 0 -2.0852 1.6922zm1.588-30.9249a21.5432 21.5432 0 0 1 3.04.0868l-.2859 2.8283a18.5453 18.5453 0 0 0 -2.6371-.0757zm2.7548 27.7753-1.4087-2.4689a27.6011 27.6011 0 0 1 2.6809-1.3406l1.129 2.6091a24.28 24.28 0 0 0 -2.4012 1.2002zm3.8781 26.2293-.8493-2.7117q1.3349-.4185 2.6559-.8785l.9347 2.684q-1.3635.4744-2.7413.906zm1.0374-28.3519-.8243-2.72a25.6088 25.6088 0 0 1 2.9244-.7022l.5 2.7978a22.8753 22.8753 0 0 0 -2.6001.6242zm4.4153 26.4534-1.02-2.6535q1.3052-.5016 2.5934-1.045l1.1054 2.6188q-1.3308.5608-2.6788 1.0795zm5.3208-2.242-1.1866-2.5827q1.2714-.5838 2.5237-1.2073l1.2671 2.5438q-1.2921.6441-2.6042 1.246zm5.1664-2.5743-1.3462-2.5036q.4756-.255.9479-.5177l1.3808 2.4842q-.4902.2725-.9825.5369zm81.944-137.012c-12.1457-8.3927-23.9232-17.8713-32.5715-29.9777a68.0424 68.0424 0 0 1 -9.4239-18.2793c-.0777-.2394-.1533-.48-.2289-.721-.2564-.8167-.5045-1.6369-.7259-2.4668v-.0007l-.0006-.002a1.93 1.93 0 0 0 -2.1636-1.503 2.1434 2.1434 0 0 0 -1.9467 2.6382l.0017.0076q.8482 3.7866 1.766 7.5558.0561.2333.1127.465 1.6581 6.84 3.5167 13.63a14.9424 14.9424 0 0 0 .6491 2.244 465.9034 465.9034 0 0 0 37.0416 92.3611 86.1979 86.1979 0 0 1 -56.3513-24.0477 2.155 2.155 0 0 0 -3.5625.941 171.0616 171.0616 0 0 0 -7.4347 47.1773 57.6664 57.6664 0 0 1 -11.9472-9.5952c-.4809-.5052-.9586-1.0138-1.4235-1.5335-.1787-.1985-.3605-.3942-.5371-.5954a70.1882 70.1882 0 0 1 -4.3688-5.5414 101.7723 101.7723 0 0 1 -7.8528-13.2042 212.4033 212.4033 0 0 1 -11.4177-28.8113q-.597-1.8006-1.1831-3.6041a2.1915 2.1915 0 0 0 -2.0557-1.5647 2.0079 2.0079 0 0 0 -.4472.06 1.752 1.752 0 0 0 -1.6078 1.5036v.0014l-.0014.0063c-1.3465 7.4462-5.1439 13.6593-9.9418 19.1834-.4805.5461-.9617 1.0915-1.4565 1.6238l-.01.0111a135.4865 135.4865 0 0 1 -9.9637 9.4668c-1.04.91-2.0782 1.81-3.1052 2.702-10.253 8.9069-21.6589 18.4729-25.5121 32.0678-2.9883 10.5437.3372 21.433-1.0419 32.0628a111.1932 111.1932 0 0 1 -39.12-51.7563 2.1513 2.1513 0 0 0 -4.111 0 138.9763 138.9763 0 0 0 -3.59 66.451 113.1908 113.1908 0 0 1 -39.0594-55.5221 2.2514 2.2514 0 0 0 -.0854-.213c.0441-.0576.0864-.1166.13-.1735l-.4479-.3455a2.17 2.17 0 0 0 -.7626-.5885l-1.04-.8021c-.1752.2269-.3439.4587-.5173.6863a2.0578 2.0578 0 0 0 -1.1738.927c-.6318 1.0506-1.2379 2.1136-1.8284 3.185q-.7661 1.0961-1.5089 2.2087l.2412.161a96.3191 96.3191 0 0 0 -8.1575 22.0652c-14.5139-24.9331-29.8625-55.1322-20.2014-84.0649 4.5107-13.5081 14.611-24.39 18.7026-38.079a37.9925 37.9925 0 0 0 .6825-18.48 1.8385 1.8385 0 0 0 -.0451-.9506c-.0056-.0292-.0039-.0562-.01-.0854-1.752-7.7689-5.3024-14.9805-8.74-22.1145-3.041-6.311-6.1847-12.7385-7.6769-19.6234a29.8666 29.8666 0 0 1 .2224-14.0458l.0021-.0132a1.9638 1.9638 0 0 0 -1.4523-2.52 2.121 2.121 0 0 0 -2.6528 1.3822l-.008.018a93.1559 93.1559 0 0 0 -.001 59.467c-17.9355 8.3947-30.9881 26.2355-34.4149 45.6542-.3212 1.8208-.5534 3.6506-.7112 5.4859a26.56 26.56 0 0 0 -2.9713-3.4188l-.0239-.0236q-.6126-.5933-1.2612-1.1532c-.0628-.0542-.1238-.11-.187-.1645-.3778-.32-.7664-.6293-1.1609-.9319-.2068-.16-.4167-.3157-.6283-.47-.1867-.1361-.3768-.2679-.5669-.4q-.7146-.4986-1.46-.9618c-.0711-.0444-.1416-.09-.213-.1325a36.5337 36.5337 0 0 0 -5.9811-2.9456 41.0261 41.0261 0 0 0 -11.1315-2.5577 43.5768 43.5768 0 0 0 -17.3656 1.7771 79.37 79.37 0 0 0 -13.1123 5.6114 15.794 15.794 0 0 0 -2.1318 1.1762c-9.9307 5.5227-19.1234 12.3791-29.2354 17.6069a86.0606 86.0606 0 0 1 -41.5028 9.3912 87.8632 87.8632 0 0 1 -40.0385-10.6756 49.8728 49.8728 0 0 0 35.7656-21.2187 34.378 34.378 0 0 0 6.2821-16.5536l.8743.3463q.5214-1.3167 1.0512-2.6306l-1.8438-.7438c-.0111-.415-.0278-.8313-.0578-1.25-.4422-6.16-2.6915-12.9315-8.0728-16.4974a12.5178 12.5178 0 0 0 -3.2146-1.521c-.0226-.0077-.04-.0195-.0634-.0257-.2008-.059-.4026-.1-.6038-.1492-.1879-.0472-.3742-.1-.5638-.1388-.0311-.0062-.0623-.01-.0932-.0159a14.0753 14.0753 0 0 0 -4.5356-.1548c-.3251.0417-.6459.0965-.9644.1582a18.9679 18.9679 0 0 0 -2.6852.6794c-2.92.9721-5.66 2.46-8.6574 3.2078a10.2973 10.2973 0 0 1 -7.2109-.7181c-4.1247-2.1463-6.7149-7.1354-7.8844-11.7769-1.4682-5.8252-.7087-11.8691.4548-17.9316q.1537-.74.3116-1.4829c.6616-3.1121 1.3439-6.2568 1.8242-9.4189 1.282-7.7731 1.4138-15.3754-3.5484-22.3754-8.592-12.12-24.9544-11.3348-38.65-8.1582 32.0233-28.5816 65.8508-55.06 97.8555-83.6638 36.3942-32.527 69.3685-68.4015 97.0673-108.6669q4.32-6.2784 8.4673-12.67 2.3668 3.7939 4.8673 7.5052c4.459 6.5941 9.7194 16.9533 19.24 15.0437 4.7643-.9555 9.1407-4.0218 13.2343-6.4928q6.4289-3.8793 12.5928-8.1755c3.7686-2.6264 7.4452-5.38 11.049-8.2247q3.6606-4.279 7.1242-8.72a284.4526 284.4526 0 0 0 23.4839-35.6614 383.51 383.51 0 0 0 19.5441-40.5027c6.1927-14.8938 11.6339-30.0887 16.69-45.4023 5.063-15.3338 9.7416-30.79 14.4181-46.2441.7939-2.6236 4.9073-1.4988 4.111 1.1332q-.866 2.8613-1.7326 5.7232c-4.72 15.5759-9.4911 31.14-14.7023 46.56-5.2015 15.39-10.8564 30.6306-17.2923 45.5494a370.6653 370.6653 0 0 1 -20.0784 40.0942 282.4934 282.4934 0 0 1 -24.5053 35.6379c-1.7209 2.1212-3.489 4.2029-5.2813 6.2631q-8.45 16.716-16.9 33.4326a2.204 2.204 0 0 0 .3334 2.5827 235.05 235.05 0 0 0 92.0693 58.9035c5.9141 2.0567 11.917 3.9045 17.9893 5.4373 5.0453 1.2733 10.856 2.2115 15.2889-1.2177 5.0589-3.9136 6.4821-11.9184 8.4742-17.6125q.7911-2.2608 1.5821-4.5228 1.5869-11.6023 3.1736-23.2053 2.7643-20.2132 5.5286-40.4271a2.1466 2.1466 0 0 1 2.6222-1.4891 2.2055 2.2055 0 0 1 1.4891 2.6222q-1.5628 11.4253-3.1253 22.85-2.7645 20.2143-5.529 40.4278-.8493 6.2118-1.699 12.4235a46.67 46.67 0 0 0 1.2806 9.7944c1.4666 5.6171 5.9242 8.478 11.3359 9.7048 6.3436 1.4378 12.9331 2.1913 19.3728 3.0788 24.3458 3.3529 49.9724 4.8989 73.6648-2.6576a227.8973 227.8973 0 0 0 22.11 46.1795 220.0591 220.0591 0 0 0 21.9088 29.2193l-20.7566-8.5495c-1.6625-.6849-2.8637 1.2289-2.6222 2.6222 3.0965 17.8505 23.0526 24.6459 30.1168 40.1891 2.5144 5.5318 2.7569 11.4889 2.3409 17.5195a2.208 2.208 0 0 0 -.1908.72c-.4313 5.4068-1.214 10.7873-1.3954 16.208l-.0053.13c-.0076.2422-.0159.4836-.0211.7258-.0125.5-.0208.9992-.0188 1.4954 0 .1346.0063.2685.0077.4031.001.0881-.0028.1756-.0014.263.0028.2123.0142.4247.0191.6363.01.4413.0215.8826.0395 1.3226.0111.265.026.5294.04.7938.0254.4829.0535.9659.0882 1.4474.0176.2464.0385.4913.0586.737.04.4871.0829.9728.1325 1.4585.0267.2644.0562.5281.0857.7925.0507.4482.1034.8965.1613 1.344q.0625.483.1315.9639c.0528.37.1069.739.1645 1.1074q.0963.6214.2026 1.24.0662.3841.1353.7675.1431.7941.3012 1.5855.0365.1812.0735.3622c.2183 1.0686.4493 2.1338.7057 3.192 2.82 11.6276 7.8782 22.6231 13.5511 33.11.3976.7349.8088 1.4628 1.2133 2.1941q.1753.3175.3511.6342 1.005 1.8069 2.0317 3.6021.31.54.6207 1.0811c.1378.2393.2734.4794.4122.7181-10.2285-7.501-21.0699-14.1471-31.5085-21.3595zm44.368 54.3966a8.9286 8.9286 0 0 1 -3.0267-1.4488l1.6917-2.2843a6.0314 6.0314 0 0 0 2.07.9881zm3.2114.3609-.0576-2.8422a14.9208 14.9208 0 0 0 2.5754-.2977l.5461 2.7895a17.7281 17.7281 0 0 1 -3.0639.3502zm5.8343 16.9075q-.5236 0-1.0468-.01l.0521-2.8422q1.3827.0272 2.7672-.0208l.0972 2.8408q-.9342.0323-1.8697.032zm2.2916-18.7082c-.7043.2463-1.43.4892-2.1681.714l-.8264-2.72c.7-.2124 1.3895-.4441 2.0574-.6773l.5825-.2033.9388 2.6826zm2.49 18.4986-.2477-2.8311c.9156-.08 1.84-.186 2.7485-.3143l.3976 2.8144c-.9579.1351-1.9328.2461-2.8984.3308zm.7764-19.6418-.9388-2.6826 2.6826-.9389.9388 2.6826zm4.9989 18.8261-.5475-2.7895c.9076-.1776 1.8156-.3809 2.6992-.6044l.6953 2.7562c-.9318.2347-1.8898.4491-2.8466.6372z"/></svg>